<svg width="24" height="24" viewBox="0 0 24 24" fill="none" xmlns="http://www.w3.org/2000/svg">
<g clip-path="url(#clip0_3426_417)">
<path d="M13.2933 2.19017e-06C13.6461 2.19017e-06 13.9617 0.219602 14.0805 0.548402L14.9277 2.8968C15.2313 2.9724 15.4917 3.048 15.7125 3.1272C15.9537 3.2136 16.2645 3.3444 16.6485 3.5232L18.6213 2.4792C18.7823 2.39389 18.9667 2.3631 19.1467 2.39144C19.3267 2.41978 19.4927 2.50574 19.6197 2.6364L21.3549 4.4304C21.5853 4.6692 21.6501 5.0184 21.5205 5.3232L20.5953 7.4916C20.7489 7.7736 20.8713 8.0148 20.9649 8.2164C21.0657 8.436 21.1905 8.7384 21.3393 9.1284L23.4957 10.0524C23.8197 10.1904 24.0201 10.5144 23.9985 10.8612L23.8401 13.3512C23.8293 13.513 23.7712 13.668 23.6731 13.7971C23.5749 13.9261 23.4411 14.0235 23.2881 14.0772L21.2457 14.8032C21.1869 15.0852 21.1257 15.3264 21.0609 15.5304C20.9564 15.8455 20.8371 16.1554 20.7033 16.4592L21.7293 18.7272C21.8017 18.8866 21.8212 19.0649 21.7849 19.2361C21.7487 19.4074 21.6585 19.5625 21.5277 19.6788L19.5765 21.4212C19.448 21.5355 19.2877 21.6077 19.1169 21.6283C18.9462 21.6489 18.7733 21.6168 18.6213 21.5364L16.6101 20.4708C16.2955 20.6374 15.9708 20.7845 15.6381 20.9112L14.7597 21.24L13.9797 23.4C13.9219 23.5582 13.8176 23.6952 13.6806 23.7931C13.5435 23.8909 13.3801 23.9451 13.2117 23.9484L10.9317 24C10.7589 24.0045 10.5889 23.9554 10.4451 23.8593C10.3013 23.7633 10.1909 23.625 10.1289 23.4636L9.20971 21.0312C8.89609 20.924 8.58556 20.808 8.27851 20.6832C8.02737 20.5745 7.78002 20.4572 7.53691 20.3316L5.25691 21.306C5.10668 21.3701 4.94105 21.3891 4.7802 21.3608C4.61934 21.3325 4.4702 21.258 4.35091 21.1464L2.66371 19.5636C2.53809 19.4463 2.45255 19.2924 2.41917 19.1238C2.38579 18.9552 2.40627 18.7803 2.47771 18.624L3.45811 16.488C3.32772 16.235 3.20684 15.9772 3.09571 15.7152C2.96599 15.3945 2.84594 15.0699 2.73571 14.742L0.587709 14.088C0.413109 14.0352 0.260822 13.9263 0.154496 13.7781C0.0481707 13.6299 -0.00624198 13.4507 -0.000291459 13.2684L0.0837085 10.9632C0.0896877 10.8128 0.136673 10.6669 0.219582 10.5413C0.302492 10.4156 0.418171 10.315 0.554109 10.2504L2.80771 9.168C2.91211 8.7852 3.00331 8.4876 3.08371 8.2704C3.19692 7.9803 3.32264 7.69523 3.46051 7.416L2.48371 5.352C2.40958 5.19526 2.38707 5.01905 2.41941 4.84871C2.45176 4.67836 2.53729 4.52267 2.66371 4.404L4.34851 2.8128C4.46661 2.70141 4.61439 2.62652 4.77406 2.59714C4.93373 2.56776 5.09849 2.58514 5.24851 2.6472L7.52611 3.588C7.77811 3.42 8.00611 3.2844 8.21251 3.1752C8.45851 3.0444 8.78731 2.9076 9.20131 2.76L9.99331 0.550802C10.0519 0.389124 10.1589 0.24946 10.2998 0.15088C10.4407 0.0522992 10.6086 -0.000391501 10.7805 2.19017e-06H13.2933ZM12.0285 8.4228C10.0281 8.4228 8.40691 10.0248 8.40691 12.0024C8.40691 13.98 10.0281 15.5832 12.0285 15.5832C14.0277 15.5832 15.6489 13.98 15.6489 12.0024C15.6489 10.0248 14.0289 8.4228 12.0285 8.4228Z" fill="#F34190"/>
</g>
<defs>
<clipPath id="clip0_3426_417">
<rect width="24" height="24" fill="white"/>
</clipPath>
</defs>
</svg>
