<svg width="24" height="24" viewBox="0 0 24 24" fill="none" xmlns="http://www.w3.org/2000/svg">
<g clip-path="url(#clip0_3426_410)">
<path d="M24 10.3636V13.6364C24 14.0909 23.8409 14.4773 23.5227 14.7955C23.2045 15.1136 22.8182 15.2727 22.3636 15.2727H15.2727V22.3636C15.2727 22.8182 15.1136 23.2045 14.7955 23.5227C14.4773 23.8409 14.0909 24 13.6364 24H10.3636C9.90909 24 9.52273 23.8409 9.20455 23.5227C8.88636 23.2045 8.72727 22.8182 8.72727 22.3636V15.2727H1.63636C1.18182 15.2727 0.795455 15.1136 0.477273 14.7955C0.159091 14.4773 0 14.0909 0 13.6364V10.3636C0 9.90909 0.159091 9.52273 0.477273 9.20455C0.795455 8.88636 1.18182 8.72727 1.63636 8.72727H8.72727V1.63636C8.72727 1.18182 8.88636 0.795455 9.20455 0.477273C9.52273 0.159091 9.90909 0 10.3636 0H13.6364C14.0909 0 14.4773 0.159091 14.7955 0.477273C15.1136 0.795455 15.2727 1.18182 15.2727 1.63636V8.72727H22.3636C22.8182 8.72727 23.2045 8.88636 23.5227 9.20455C23.8409 9.52273 24 9.90909 24 10.3636Z" fill="#FFD814"/>
</g>
<defs>
<clipPath id="clip0_3426_410">
<rect width="24" height="24" fill="white"/>
</clipPath>
</defs>
</svg>
