<svg width="50" height="50" viewBox="0 0 50 50" fill="none" xmlns="http://www.w3.org/2000/svg">
<path d="M45.4481 9.66909C45.2609 9.45527 45.0315 9.2824 44.7744 9.16129C44.5173 9.04018 44.238 8.97344 43.9539 8.96524C39.5404 8.84986 33.9558 4.13063 30.2635 2.2787C27.9827 1.13832 26.4789 0.386395 25.3462 0.188318C25.1173 0.154042 24.8845 0.154691 24.6558 0.190241C23.5231 0.388318 22.0173 1.14024 19.7404 2.28063C16.0462 4.13063 10.4616 8.85178 6.04619 8.96524C5.47888 8.98063 4.93657 9.23447 4.55196 9.66909C4.16248 10.1097 3.96153 10.6856 3.99234 11.2729C4.94234 30.5479 11.8539 42.4768 23.9846 49.4095C24.3 49.5883 24.65 49.6806 25 49.6806C25.35 49.6806 25.7 49.5883 26.0154 49.4095C38.1462 42.4768 45.0577 30.5479 46.0077 11.2729C46.0385 10.6856 45.8376 10.1097 45.4481 9.66909ZM34.0539 25.4056C33.502 26.9191 30.425 33.971 21.6116 32.3922C21.3606 33.2725 20.7695 35.1449 20.5506 35.8382C20.5414 35.8673 20.5329 35.8943 20.525 35.9191C20.4885 36.0383 20.4308 36.046 20.3596 35.9345C19.6077 34.8095 15.275 28.2729 15.1904 28.1383C15.0904 27.996 15.2462 27.9287 15.2462 27.9287L23.5712 24.1133C23.8308 23.9922 23.7616 24.2826 23.7616 24.2826L22.7173 28.0806C22.7173 28.0806 23.9539 28.8229 26.3866 28.7691C29.975 28.696 33.0962 26.0941 33.9346 25.3345C34.0712 25.1999 34.1212 25.2287 34.0539 25.4056ZM34.6808 18.2999C34.452 18.4152 27.6596 21.4595 26.275 22.1518C26.0154 22.2845 26.0847 22.0325 26.0847 22.0325L27.1635 18.1229C27.1635 18.1229 25.9096 17.3691 23.4404 17.4191C19.9193 17.4941 16.8481 19.9576 15.8789 20.8229C15.6731 21.0018 15.6058 20.9825 15.6923 20.7499C16.3289 19.0595 19.4943 12.171 28.2789 13.746C28.5309 12.8743 29.1097 11.0448 29.3437 10.3052L29.3439 10.3045C29.3473 10.2937 29.3506 10.2832 29.3539 10.2729C29.4423 10.0287 29.6135 10.2326 29.6135 10.2326L34.7673 18.0114C34.7654 18.0114 34.852 18.2152 34.6808 18.2999Z" fill="#3594ED"/>
<path d="M34.0539 25.4056C33.502 26.9191 30.425 33.971 21.6116 32.3922C21.3606 33.2725 20.7695 35.1449 20.5506 35.8382L20.525 35.9191C20.4885 36.0383 20.4308 36.046 20.3596 35.9345C19.6077 34.8095 15.275 28.2729 15.1904 28.1383C15.0904 27.996 15.2462 27.9287 15.2462 27.9287L23.5712 24.1133C23.8308 23.9922 23.7616 24.2826 23.7616 24.2826L22.7173 28.0806C22.7173 28.0806 23.9539 28.8229 26.3866 28.7691C29.975 28.696 33.0962 26.0941 33.9346 25.3345C34.0712 25.1999 34.1212 25.2287 34.0539 25.4056Z" fill="white"/>
<path d="M34.6808 18.2999C34.452 18.4152 27.6596 21.4595 26.275 22.1518C26.0154 22.2845 26.0847 22.0325 26.0847 22.0325L27.1635 18.1229C27.1635 18.1229 25.9096 17.3691 23.4404 17.4191C19.9193 17.4941 16.8481 19.9576 15.8789 20.8229C15.6731 21.0018 15.6058 20.9825 15.6923 20.7499C16.3289 19.0595 19.4943 12.171 28.2789 13.746C28.5309 12.8743 29.1097 11.0448 29.3437 10.3052L29.3439 10.3045L29.3539 10.2729C29.4423 10.0287 29.6135 10.2326 29.6135 10.2326L34.7673 18.0114C34.7654 18.0114 34.852 18.2152 34.6808 18.2999Z" fill="white"/>
</svg>
