<svg width="20" height="20" viewBox="0 0 20 20" fill="none" xmlns="http://www.w3.org/2000/svg">
<path d="M16.6663 6.66659H14.1663V3.33325H2.49967C1.58301 3.33325 0.833008 4.08325 0.833008 4.99992V14.1666H2.49967C2.49967 15.5499 3.61634 16.6666 4.99967 16.6666C6.38301 16.6666 7.49967 15.5499 7.49967 14.1666H12.4997C12.4997 15.5499 13.6163 16.6666 14.9997 16.6666C16.383 16.6666 17.4997 15.5499 17.4997 14.1666H19.1663V9.99992L16.6663 6.66659ZM4.99967 15.4166C4.30801 15.4166 3.74967 14.8583 3.74967 14.1666C3.74967 13.4749 4.30801 12.9166 4.99967 12.9166C5.69134 12.9166 6.24967 13.4749 6.24967 14.1666C6.24967 14.8583 5.69134 15.4166 4.99967 15.4166ZM16.2497 7.91658L17.883 9.99992H14.1663V7.91658H16.2497ZM14.9997 15.4166C14.308 15.4166 13.7497 14.8583 13.7497 14.1666C13.7497 13.4749 14.308 12.9166 14.9997 12.9166C15.6913 12.9166 16.2497 13.4749 16.2497 14.1666C16.2497 14.8583 15.6913 15.4166 14.9997 15.4166Z" fill="#9DADCB"/>
</svg>
