<svg width="135" height="121" viewBox="0 0 135 121" fill="none" xmlns="http://www.w3.org/2000/svg">
    <path d="M30.3193 50.7223L36.5896 96.4526L72.9594 120.579L116.409 92.9345L115.398 48.1868L30.3193 50.7223Z"
          fill="#F39647"/>
    <path d="M72.9594 120.833L72.8456 120.759L36.3926 96.5798L36.3794 96.4833L30.0742 50.5161L115.604 47.9675L115.608 48.1824L116.619 93.0486L72.9594 120.833ZM36.7864 96.3298L72.9637 120.324L116.195 92.8161L115.193 48.4018L30.5599 50.9285L36.7864 96.3298Z"
          fill="#B7550D"/>
    <g opacity="0.5">
        <path d="M95.1559 99.6548L116.224 84.8895L115.397 48.1868L64.2773 49.7089L69.3268 75.3004L95.1559 99.6548Z"
              fill="#A15E1C"/>
    </g>
    <path d="M30.3193 50.7223L36.5896 96.4526L72.9594 120.579L67.2712 49.6212L30.3193 50.7223Z" fill="#CF714B"/>
    <path d="M73.2088 121L72.8456 120.759L36.3926 96.5798L36.3794 96.4833L30.0742 50.5161L67.4636 49.4019L73.2088 121ZM36.7864 96.3297L72.7143 120.162L67.0742 49.8405L30.5599 50.9284L36.7864 96.3297Z"
          fill="#9B4021"/>
    <path opacity="0.5"
          d="M68.9509 70.6023L67.2663 49.6212L30.3145 50.7223L36.5103 95.7156C39.7176 93.4477 48.0093 85.1 69.3272 75.3004L69.2484 74.3397C68.859 73.0588 68.789 71.8043 68.9509 70.6023Z"
          fill="#A15E1C"/>
    <path d="M73.383 28.1795L73.1992 67.9748L73.8206 72.686L115.397 48.1868L73.383 28.1795Z" fill="#844840"/>
    <path d="M73.6539 73.0281L72.9932 68.001L73.1769 27.8417L115.852 48.1648L115.506 48.3666L73.6539 73.0281ZM73.5926 28.5129L73.4132 67.9747L73.9908 72.335L114.946 48.2043L73.5926 28.5129Z"
          fill="#561C17"/>
    <path d="M73.3839 28.1795L30.3193 50.7223L69.5596 75.1951L73.8214 72.686L73.2001 67.9748L73.3839 28.1795Z"
          fill="#662924"/>
    <path d="M69.5548 75.4452L29.8857 50.7047L73.5935 27.8242L73.4097 67.9748L74.0485 72.7913L69.5548 75.4452ZM30.7434 50.7398L69.5592 74.9495L73.5891 72.5763L72.9853 68.0099L73.1647 28.5348L30.7434 50.7398Z"
          fill="#561C17"/>
    <g opacity="0.5">
        <path d="M73.82 72.686L73.1986 67.9791L73.3824 28.1795L71.4572 29.1884C71.0108 37.8914 68.9106 54.8588 59.7568 69.0846L69.5581 75.1951L73.82 72.686Z"
              fill="#662924"/>
    </g>
    <g opacity="0.5">
        <path d="M73.383 28.1795L73.1992 67.9791L73.8206 72.686L87.9887 64.3383C78.8481 51.6347 76.6734 36.4921 76.1571 29.5043L73.383 28.1795Z"
              fill="#844840"/>
    </g>
    <path d="M69.5538 75.4452L29.8848 50.7047L73.3737 27.9383L73.47 27.9821L115.843 48.1605L115.498 48.3623L69.5538 75.4452ZM30.7424 50.7398L69.5626 74.9495L114.946 48.2087L73.3912 28.4208L30.7424 50.7398Z"
          fill="#FF0000"/>
    <path d="M77.9636 70.2426L73.1986 67.9748L64.9287 72.3087L69.5581 75.1951L77.9636 70.2426Z" fill="#491412"/>
    <path d="M69.5538 75.4451L64.5 72.2912L73.1987 67.7379L78.4187 70.2251L69.5538 75.4451ZM65.3532 72.3219L69.5582 74.9451L77.5042 70.2602L73.1987 68.2116L65.3532 72.3219Z"
          fill="#2B0505"/>
    <path d="M73.3838 28.1795C73.3838 28.1795 79.4308 11.2341 91.8663 0.254425L133.846 21.9418C133.846 21.9418 123.117 24.6088 115.398 48.1824L73.3838 28.1795Z"
          fill="#EA8A2B"/>
    <path d="M115.525 48.4807L115.306 48.3754L73.1211 28.2848L73.1867 28.1049C73.248 27.9339 79.3957 10.9797 91.7261 0.0921186L91.8355 0L91.9624 0.065799L134.441 22.012L133.894 22.1479C133.789 22.1743 123.178 25.0914 115.595 48.2482L115.525 48.4807ZM73.6505 28.0699L115.271 47.8885C122.08 27.2627 131.071 22.727 133.294 21.8979L91.8967 0.513232C80.4021 10.7209 74.3463 26.2231 73.6505 28.0699Z"
          fill="#B75F11"/>
    <path d="M69.5586 75.1951C69.5586 75.1951 87.5773 86.9073 95.3702 94.4654L134.742 66.7991C134.742 66.7991 129.46 53.4419 115.397 48.1824L69.5586 75.1951Z"
          fill="#FEB96B"/>
    <path d="M95.3485 94.7374L95.2216 94.6146C87.5337 87.1574 69.6244 75.489 69.445 75.3706L69.1562 75.1819L115.376 47.9455L115.472 47.9806C129.461 53.2094 134.886 66.5842 134.939 66.7158L135 66.8737L95.3485 94.7374ZM69.9614 75.2039C72.2935 76.7348 88.1507 87.2232 95.3879 94.1891L134.475 66.7246C133.832 65.2287 128.345 53.3016 115.415 48.4193L69.9614 75.2039Z"
          fill="#D17B26"/>
    <path d="M30.3189 50.7222L10.248 26.6003C10.248 26.6003 26.2627 14.4889 58.2395 2.46964C58.2395 2.46964 71.4013 22.3015 73.3834 28.1795L30.3189 50.7222Z"
          fill="#EA8A2B"/>
    <path d="M30.2621 50.9898L30.1527 50.8582L9.9375 26.5652L10.1169 26.4293C10.1563 26.3986 14.2256 23.3411 22.1454 18.8536C29.4526 14.717 41.6299 8.47929 58.1608 2.26786L58.3184 2.20645L58.4103 2.34682C58.9485 3.15834 71.6114 22.2708 73.5804 28.1049L73.6373 28.276L30.2621 50.9898ZM10.5545 26.6398L30.3715 50.4547L73.1254 28.0742C71.0776 22.3541 59.3291 4.50064 58.1565 2.72846C41.7349 8.90918 29.6364 15.1074 22.3685 19.2221C15.3939 23.17 11.4164 26.0038 10.5545 26.6398Z"
          fill="#B75F11"/>
    <path d="M30.3184 50.7222C30.3184 50.7222 12.0197 50.1388 0.328125 60.6272L36.0548 90.035C36.0548 90.035 49.2734 79.7484 69.5587 75.1951L30.3184 50.7222Z"
          fill="#FEB96B"/>
    <path d="M36.0505 90.3069L35.9192 90.1973L0 60.636L0.183775 60.4693C11.801 50.0467 30.139 50.5029 30.3228 50.5117H30.3797L30.4278 50.5424L70.11 75.2916L69.6025 75.4057C49.5973 79.8975 36.3174 90.1008 36.1861 90.2061L36.0505 90.3069ZM0.651963 60.6228L36.0592 89.7674C37.5032 88.6883 50.2624 79.4282 69.0074 75.103L30.2528 50.9328C29.1327 50.9109 11.8316 50.7661 0.651963 60.6228Z"
          fill="#D17B26"/>
    <g opacity="0.5">
        <path d="M116.99 48.836C116.469 48.6079 115.944 48.3886 115.397 48.1868L69.5586 75.1951C69.5586 75.1951 87.5773 86.9073 95.3702 94.4654L95.5715 94.3207C96.6872 69.4355 109.95 54.8632 116.99 48.836Z"
              fill="#D1751A"/>
    </g>
    <g opacity="0.5">
        <path d="M69.5584 75.1951L30.3138 50.7222C30.3138 50.7222 29.5962 50.7003 28.3535 50.7442C34.895 56.438 47.4442 70.7866 35.4638 89.5524L36.0502 90.035C36.0545 90.035 49.2732 79.7528 69.5584 75.1951Z"
              fill="#D1751A"/>
    </g>
    <g opacity="0.5">
        <path d="M92.701 0.688707L91.8653 0.25882C79.4299 11.2341 73.3828 28.1839 73.3828 28.1839L115.397 48.1912C115.651 47.4192 115.909 46.6647 116.167 45.9365C93.4843 31.3642 92.0797 10.0278 92.701 0.688707Z"
              fill="#D1751A"/>
    </g>
    <path opacity="0.5"
          d="M122.718 53.249C122.718 53.249 129.864 59.2718 133.058 66.0008C108.712 83.6218 108.712 83.6218 108.712 83.6218C108.712 83.6218 125.033 69.5583 127.199 66.4526C129.365 63.3469 122.718 53.249 122.718 53.249Z"
          fill="#FED8AE"/>
    <path opacity="0.5"
          d="M96.3193 4.05762L130.287 21.6479C130.287 21.6479 122.109 27.2145 116.836 40.8831C117.729 30.8641 124.24 23.692 117.222 18.4369C110.199 13.1774 96.3193 4.05762 96.3193 4.05762Z"
          fill="#FEB96B"/>
    <path opacity="0.5"
          d="M20.0798 52.9068C20.0798 52.9068 12.2607 53.2533 2.88379 60.2851C24.9236 77.9762 30.0518 82.2049 30.0518 82.2049C30.0518 82.2049 13.9103 67.5975 10.3092 62.9916C6.70805 58.3857 14.1641 54.6 20.0798 52.9068Z"
          fill="#FED8AE"/>
    <g opacity="0.5">
        <path d="M73.3837 28.1795C71.4016 22.3015 58.2398 2.46967 58.2398 2.46967C58.0823 2.53108 57.9291 2.5881 57.7716 2.64952C61.9109 11.0981 68.0674 33.0618 29.4922 49.516L30.3192 50.7223L73.3837 28.1795Z"
              fill="#D1751A"/>
    </g>
    <path opacity="0.5"
          d="M56.1827 4.36905C56.1827 4.36905 25.3042 17.5815 13.2275 25.8941C23.1207 38.3301 29.3428 46.5681 29.3428 46.5681C29.3428 46.5681 18.9814 30.7501 20.1235 26.5696C21.2655 22.3892 56.1827 4.36905 56.1827 4.36905Z"
          fill="#FEB96B"/>
</svg>
