<svg width="109" height="80" viewBox="0 0 109 80" fill="none" xmlns="http://www.w3.org/2000/svg">
<path d="M52.5862 49.2089C48.817 52.2666 44.9285 55.1433 41.0179 57.9713C37.1072 60.7993 33.1436 63.5478 29.1667 66.2742C25.1898 69.0005 21.1466 71.6253 17.0858 74.228C15.0664 75.5536 13.0161 76.8085 10.979 78.0988C9.97427 78.7913 8.86406 79.3165 7.69145 79.6542C7.05578 79.8256 6.40436 79.9322 5.74719 79.9724C5.00873 80.0334 4.2654 79.9933 3.53781 79.8531C2.96817 79.7372 2.42699 79.51 1.94529 79.1846C1.46359 78.8592 1.05083 78.442 0.730653 77.9568C0.410478 77.4716 0.189183 76.928 0.0794472 76.3571C-0.0302883 75.7863 -0.0263095 75.1994 0.0911589 74.6301C0.0911589 74.5638 0.122091 74.4798 0.139766 74.4091C0.33804 73.6937 0.635513 73.0095 1.02352 72.3765C1.34997 71.8128 1.73348 71.2842 2.16799 70.799C2.98651 69.8938 3.94598 69.1268 5.00926 68.5277C7.06399 67.264 9.10104 65.9781 11.1646 64.7408C15.2785 62.2266 19.4321 59.783 23.6079 57.3703C27.7836 54.9577 32.0036 52.6201 36.2588 50.3401C40.5141 48.06 44.8048 45.8373 49.2059 43.787C49.9159 43.4791 50.713 43.4364 51.4519 43.6666C52.1908 43.8969 52.8225 44.3848 53.2319 45.0416C53.6414 45.6983 53.8015 46.4803 53.683 47.2451C53.5644 48.0099 53.1753 48.7068 52.5862 49.2089Z" fill="#1272CC"/>
<path d="M52.5862 49.2089C48.817 52.2666 44.9285 55.1433 41.0179 57.9713C37.1072 60.7993 33.1436 63.5478 29.1667 66.2742C25.1898 69.0005 21.1466 71.6253 17.0858 74.228C15.0664 75.5536 13.0161 76.8085 10.979 78.0988C9.97427 78.7913 8.86406 79.3165 7.69145 79.6542C7.05578 79.8256 6.40436 79.9322 5.74719 79.9724C5.00873 80.0334 4.2654 79.9933 3.53781 79.8531C2.96817 79.7372 2.42699 79.51 1.94529 79.1846C1.46359 78.8592 1.05083 78.442 0.730653 77.9568C0.410478 77.4716 0.189183 76.928 0.0794472 76.3571C-0.0302883 75.7863 -0.0263095 75.1994 0.0911589 74.6301C0.0911589 74.5638 0.122091 74.4798 0.139766 74.4091C0.33804 73.6937 0.635513 73.0095 1.02352 72.3765C1.34997 71.8128 1.73348 71.2842 2.16799 70.799C2.98651 69.8938 3.94598 69.1268 5.00926 68.5277C7.06399 67.264 9.10104 65.9781 11.1646 64.7408C15.2785 62.2266 19.4321 59.783 23.6079 57.3703C27.7836 54.9577 32.0036 52.6201 36.2588 50.3401C40.5141 48.06 44.8048 45.8373 49.2059 43.787C49.9159 43.4791 50.713 43.4364 51.4519 43.6666C52.1908 43.8969 52.8225 44.3848 53.2319 45.0416C53.6414 45.6983 53.8015 46.4803 53.683 47.2451C53.5644 48.0099 53.1753 48.7068 52.5862 49.2089Z" fill="#1272CC"/>
<path opacity="0.5" d="M52.5862 49.2089C48.817 52.2666 44.9285 55.1433 41.0179 57.9713C37.1072 60.7993 33.1436 63.5478 29.1667 66.2742C25.1898 69.0005 21.1466 71.6253 17.0858 74.228C15.0664 75.5536 13.0161 76.8085 10.979 78.0988C9.97427 78.7913 8.86406 79.3165 7.69145 79.6542C7.05578 79.8256 6.40436 79.9322 5.74719 79.9724C5.00873 80.0334 4.2654 79.9933 3.53781 79.8531C2.96817 79.7372 2.42699 79.51 1.94529 79.1846C1.46359 78.8592 1.05083 78.442 0.730653 77.9568C0.410478 77.4716 0.189183 76.928 0.0794472 76.3571C-0.0302883 75.7863 -0.0263095 75.1994 0.0911589 74.6301C0.0911589 74.5638 0.122091 74.4798 0.139766 74.4091C0.33804 73.6937 0.635513 73.0095 1.02352 72.3765C1.34997 71.8128 1.73348 71.2842 2.16799 70.799C2.98651 69.8938 3.94598 69.1268 5.00926 68.5277C7.06399 67.264 9.10104 65.9781 11.1646 64.7408C15.2785 62.2266 19.4321 59.783 23.6079 57.3703C27.7836 54.9577 32.0036 52.6201 36.2588 50.3401C40.5141 48.06 44.8048 45.8373 49.2059 43.787C49.9159 43.4791 50.713 43.4364 51.4519 43.6666C52.1908 43.8969 52.8225 44.3848 53.2319 45.0416C53.6414 45.6983 53.8015 46.4803 53.683 47.2451C53.5644 48.0099 53.1753 48.7068 52.5862 49.2089Z" fill="white"/>
<path d="M14.4349 61.8554H14.0239C13.9444 61.8554 13.8825 61.8112 13.8869 61.7626L14.0814 59.9951C14.0814 59.9421 14.1565 59.9023 14.236 59.9023H14.647C14.7265 59.9023 14.7884 59.9421 14.784 59.9951L14.5895 61.7626C14.5851 61.8024 14.5144 61.8554 14.4349 61.8554Z" fill="#1272CC"/>
<path d="M24.3061 61.8553H23.8995C23.8156 61.8553 23.7537 61.8112 23.7626 61.7626L23.9526 59.995C23.9526 59.942 24.0277 59.9023 24.1116 59.9023H24.5182C24.5977 59.9023 24.6596 59.942 24.6551 59.995L24.4651 61.7626C24.4651 61.8023 24.3944 61.8553 24.3061 61.8553Z" fill="#1272CC"/>
<path d="M103.142 15.1313C99.7713 9.73423 94.8762 5.45779 89.0754 2.84271C83.2746 0.227636 76.8286 -0.608645 70.5525 0.439618C64.2764 1.48788 58.4521 4.37361 53.8161 8.73191C49.18 13.0902 45.9404 18.7253 44.5068 24.9248C43.0733 31.1242 43.5102 37.6095 45.7624 43.5606C48.0145 49.5117 51.9807 54.6614 57.1595 58.3584C62.3383 62.0555 68.4971 64.1339 74.857 64.3308C81.217 64.5277 87.4925 62.8344 92.8901 59.4648C96.4745 57.2272 99.583 54.3055 102.038 50.8664C104.493 47.4273 106.247 43.5383 107.199 39.4215C108.151 35.3046 108.282 31.0406 107.586 26.8728C106.89 22.7051 105.38 18.7153 103.142 15.1313ZM54.3186 45.6208C51.66 41.3618 50.324 36.41 50.4795 31.3916C50.6351 26.3733 52.2752 21.5138 55.1926 17.4275C58.1099 13.3413 62.1734 10.212 66.8693 8.43514C71.5651 6.65832 76.6824 6.31386 81.574 7.4453C86.4656 8.57675 90.9119 11.1333 94.3505 14.7917C97.7892 18.45 100.066 23.0459 100.893 27.9981C101.719 32.9503 101.059 38.0365 98.9951 42.6135C96.9312 47.1904 93.5565 51.0526 89.2977 53.7116C86.4694 55.477 83.3212 56.6681 80.0326 57.2167C76.744 57.7654 73.3796 57.6608 70.1314 56.9091C66.8832 56.1574 63.815 54.7732 61.1018 52.8356C58.3886 50.898 56.0837 48.4449 54.3186 45.6164V45.6208Z" fill="#1272CC"/>
<path d="M103.142 15.1313C99.7713 9.73423 94.8762 5.45779 89.0754 2.84271C83.2746 0.227636 76.8286 -0.608645 70.5525 0.439618C64.2764 1.48788 58.4521 4.37361 53.8161 8.73191C49.18 13.0902 45.9404 18.7253 44.5068 24.9248C43.0733 31.1242 43.5102 37.6095 45.7624 43.5606C48.0145 49.5117 51.9807 54.6614 57.1595 58.3584C62.3383 62.0555 68.4971 64.1339 74.857 64.3308C81.217 64.5277 87.4925 62.8344 92.8901 59.4648C96.4745 57.2272 99.583 54.3055 102.038 50.8664C104.493 47.4273 106.247 43.5383 107.199 39.4215C108.151 35.3046 108.282 31.0406 107.586 26.8728C106.89 22.7051 105.38 18.7153 103.142 15.1313ZM54.3186 45.6208C51.66 41.3618 50.324 36.41 50.4795 31.3916C50.6351 26.3733 52.2752 21.5138 55.1926 17.4275C58.1099 13.3413 62.1734 10.212 66.8693 8.43514C71.5651 6.65832 76.6824 6.31386 81.574 7.4453C86.4656 8.57675 90.9119 11.1333 94.3505 14.7917C97.7892 18.45 100.066 23.0459 100.893 27.9981C101.719 32.9503 101.059 38.0365 98.9951 42.6135C96.9312 47.1904 93.5565 51.0526 89.2977 53.7116C86.4694 55.477 83.3212 56.6681 80.0326 57.2167C76.744 57.7654 73.3796 57.6608 70.1314 56.9091C66.8832 56.1574 63.815 54.7732 61.1018 52.8356C58.3886 50.898 56.0837 48.4449 54.3186 45.6164V45.6208Z" fill="#1272CC"/>
<path opacity="0.5" d="M103.142 15.1313C99.7713 9.73423 94.8762 5.45779 89.0754 2.84271C83.2746 0.227636 76.8286 -0.608645 70.5525 0.439618C64.2764 1.48788 58.4521 4.37361 53.8161 8.73191C49.18 13.0902 45.9404 18.7253 44.5068 24.9248C43.0733 31.1242 43.5102 37.6095 45.7624 43.5606C48.0145 49.5117 51.9807 54.6614 57.1595 58.3584C62.3383 62.0555 68.4971 64.1339 74.857 64.3308C81.217 64.5277 87.4925 62.8344 92.8901 59.4648C96.4745 57.2272 99.583 54.3055 102.038 50.8664C104.493 47.4273 106.247 43.5383 107.199 39.4215C108.151 35.3046 108.282 31.0406 107.586 26.8728C106.89 22.7051 105.38 18.7153 103.142 15.1313ZM54.3186 45.6208C51.66 41.3618 50.324 36.41 50.4795 31.3916C50.6351 26.3733 52.2752 21.5138 55.1926 17.4275C58.1099 13.3413 62.1734 10.212 66.8693 8.43514C71.5651 6.65832 76.6824 6.31386 81.574 7.4453C86.4656 8.57675 90.9119 11.1333 94.3505 14.7917C97.7892 18.45 100.066 23.0459 100.893 27.9981C101.719 32.9503 101.059 38.0365 98.9951 42.6135C96.9312 47.1904 93.5565 51.0526 89.2977 53.7116C86.4694 55.477 83.3212 56.6681 80.0326 57.2167C76.744 57.7654 73.3796 57.6608 70.1314 56.9091C66.8832 56.1574 63.815 54.7732 61.1018 52.8356C58.3886 50.898 56.0837 48.4449 54.3186 45.6164V45.6208Z" fill="white"/>
<path opacity="0.2" d="M99.5142 17.3981C102.435 22.0783 103.902 27.5194 103.731 33.0336C103.56 38.5477 101.757 43.8872 98.5516 48.377C95.3459 52.8668 90.8808 56.3053 85.721 58.2577C80.5612 60.21 74.9384 60.5886 69.5635 59.3456C64.1885 58.1026 59.3028 55.2937 55.5241 51.2742C51.7455 47.2547 49.2434 42.205 48.3344 36.7636C47.4254 31.3222 48.1503 25.7334 50.4173 20.704C52.6843 15.6745 56.3917 11.4301 61.0708 8.50753C64.1786 6.56638 67.6384 5.25651 71.2525 4.65276C74.8666 4.04901 78.5643 4.1632 82.1343 4.98881C85.7043 5.81442 89.0766 7.33527 92.0587 9.4645C95.0408 11.5937 97.5742 14.2896 99.5142 17.3981Z" fill="#FAFAFA"/>
<path opacity="0.1" d="M103.477 28.2241L60.1725 55.2582C56.6412 52.862 53.707 49.6874 51.5957 45.9787L98.8766 16.4569C101.289 19.9761 102.863 24.0016 103.477 28.2241Z" fill="#E6E6E6"/>
</svg>
