<svg width="124" height="109" viewBox="0 0 124 109" fill="none" xmlns="http://www.w3.org/2000/svg">
<path fill-rule="evenodd" clip-rule="evenodd" d="M32.3174 3.87935C32.3174 2.28239 33.612 0.987793 35.2089 0.987793H44.5706C46.1676 0.987793 47.4622 2.28239 47.4622 3.87935V11.4132H65.2934C66.8904 11.4132 68.185 12.7078 68.185 14.3048C68.185 15.9018 66.8904 17.1964 65.2934 17.1964H47.4622V25.0041H59.5411C61.138 25.0041 62.4326 26.2987 62.4326 27.8957C62.4326 29.4926 61.138 30.7872 59.5411 30.7872H47.4622V38.6562H81.1354C82.7324 38.6562 84.027 39.9508 84.027 41.5478C84.027 43.1447 82.7324 44.4393 81.1354 44.4393H44.5706C42.9736 44.4393 41.679 43.1447 41.679 41.5478V27.8957V14.3048V6.7709H35.2089C33.612 6.7709 32.3174 5.47631 32.3174 3.87935ZM53.411 51.7685C53.411 53.9566 51.6298 55.7304 49.4326 55.7304C47.2353 55.7304 45.4541 53.9566 45.4541 51.7685C45.4541 49.5804 47.2353 47.8066 49.4326 47.8066C51.6298 47.8066 53.411 49.5804 53.411 51.7685ZM71.4181 55.7306C73.6153 55.7306 75.3966 53.9568 75.3966 51.7687C75.3966 49.5807 73.6153 47.8069 71.4181 47.8069C69.2209 47.8069 67.4397 49.5807 67.4397 51.7687C67.4397 53.9568 69.2209 55.7306 71.4181 55.7306Z" fill="#1272CC"/>
<path d="M31.7945 41.5576V14.3555L18.116 30.119L4.84766 14.3555V41.5576" stroke="#001233" stroke-width="5.78311" stroke-linecap="round" stroke-linejoin="round"/>
<path d="M91.1338 41.5579V14.3557H105.202C112.315 14.3557 118.081 20.1217 118.081 27.2344V28.6792C118.081 35.7919 112.315 41.5579 105.202 41.5579H91.1338Z" stroke="#001233" stroke-width="5.78311" stroke-linecap="round" stroke-linejoin="round"/>
<path d="M1.75421 79.3063H10.4173C12.0906 79.3063 13.386 79.7381 14.3036 80.6017C15.2211 81.4653 15.6799 82.7247 15.6799 84.38C15.6799 85.3156 15.455 86.1432 15.0052 86.8629C14.5734 87.5645 13.9977 88.0863 13.278 88.4282C15.2931 89.0219 16.3007 90.4882 16.3007 92.8272C16.3007 93.9247 16.0578 94.8783 15.572 95.6879C15.1042 96.4795 14.4565 97.0913 13.6289 97.5231C12.8012 97.9549 11.8837 98.1708 10.8761 98.1708H1.75421V79.3063ZM10.0665 87.4026C10.9481 87.4026 11.6408 87.1597 12.1445 86.674C12.6483 86.1882 12.9002 85.4685 12.9002 84.5149C12.9002 83.4174 12.6483 82.6528 12.1445 82.221C11.6588 81.7712 10.9031 81.5463 9.87755 81.5463H4.50697V87.4026H10.0665ZM10.2554 95.9308C11.3169 95.9308 12.1265 95.6969 12.6843 95.2291C13.242 94.7613 13.5209 93.9607 13.5209 92.8272C13.5209 91.6937 13.224 90.8841 12.6303 90.3983C12.0546 89.9125 11.182 89.6696 10.0125 89.6696H4.50697V95.9308H10.2554ZM35.3547 98.5756C33.4836 98.5756 31.7923 98.1708 30.281 97.3611C28.7697 96.5335 27.5822 95.373 26.7186 93.8797C25.855 92.3864 25.4232 90.6771 25.4232 88.752C25.4232 86.8269 25.855 85.1177 26.7186 83.6243C27.5822 82.131 28.7697 80.9705 30.281 80.1429C31.7923 79.3153 33.4836 78.9014 35.3547 78.9014C37.2259 78.9014 38.9171 79.3153 40.4284 80.1429C41.9398 80.9705 43.1272 82.131 43.9908 83.6243C44.8544 85.1177 45.2862 86.8269 45.2862 88.752C45.2862 90.6771 44.8544 92.3864 43.9908 93.8797C43.1272 95.373 41.9398 96.5335 40.4284 97.3611C38.9171 98.1708 37.2259 98.5756 35.3547 98.5756ZM35.3547 96.0927C36.6861 96.0927 37.8916 95.7958 38.9711 95.2021C40.0686 94.5904 40.9322 93.7358 41.5619 92.6383C42.1916 91.5228 42.5065 90.2274 42.5065 88.752C42.5065 87.2947 42.1916 86.0172 41.5619 84.9197C40.9502 83.8042 40.1046 82.9496 39.0251 82.3559C37.9456 81.7442 36.7401 81.4383 35.4087 81.4383C34.0593 81.4383 32.8359 81.7352 31.7383 82.3289C30.6588 82.9226 29.7952 83.7773 29.1475 84.8928C28.5178 86.0083 28.2029 87.2947 28.2029 88.752C28.2029 90.2274 28.5178 91.5228 29.1475 92.6383C29.7772 93.7358 30.6318 94.5904 31.7114 95.2021C32.8089 95.7958 34.0233 96.0927 35.3547 96.0927ZM54.1387 96.3086L64.583 81.6272H54.3816V79.3063H67.9295V81.1954L57.5122 95.8768H68.3883V98.1708H54.1387V96.3086ZM87.172 98.5756C85.3009 98.5756 83.6096 98.1708 82.0983 97.3611C80.587 96.5335 79.3995 95.373 78.5359 93.8797C77.6723 92.3864 77.2405 90.6771 77.2405 88.752C77.2405 86.8269 77.6723 85.1177 78.5359 83.6243C79.3995 82.131 80.587 80.9705 82.0983 80.1429C83.6096 79.3153 85.3009 78.9014 87.172 78.9014C89.0432 78.9014 90.7344 79.3153 92.2457 80.1429C93.7571 80.9705 94.9445 82.131 95.8081 83.6243C96.6718 85.1177 97.1036 86.8269 97.1036 88.752C97.1036 90.6771 96.6718 92.3864 95.8081 93.8797C94.9445 95.373 93.7571 96.5335 92.2457 97.3611C90.7344 98.1708 89.0432 98.5756 87.172 98.5756ZM87.172 96.0927C88.5034 96.0927 89.7089 95.7958 90.7884 95.2021C91.8859 94.5904 92.7495 93.7358 93.3792 92.6383C94.009 91.5228 94.3238 90.2274 94.3238 88.752C94.3238 87.2947 94.009 86.0172 93.3792 84.9197C92.7675 83.8042 91.9219 82.9496 90.8424 82.3559C89.7629 81.7442 88.5574 81.4383 87.226 81.4383C85.8766 81.4383 84.6532 81.7352 83.5557 82.3289C82.4761 82.9226 81.6125 83.7773 80.9648 84.8928C80.3351 86.0083 80.0202 87.2947 80.0202 88.752C80.0202 90.2274 80.3351 91.5228 80.9648 92.6383C81.5945 93.7358 82.4492 94.5904 83.5287 95.2021C84.6262 95.7958 85.8406 96.0927 87.172 96.0927ZM107.445 79.3063H115.028C117.043 79.3063 118.591 79.792 119.67 80.7636C120.75 81.7352 121.289 83.1565 121.289 85.0277C121.289 86.4131 120.92 87.5915 120.183 88.5631C119.445 89.5167 118.402 90.1644 117.052 90.5062L121.208 98.1708H118.348L114.326 90.7221H110.197V98.1708H107.445V79.3063ZM114.569 88.4012C115.775 88.4012 116.728 88.1223 117.43 87.5646C118.15 86.9888 118.51 86.1432 118.51 85.0277C118.51 83.8042 118.159 82.9316 117.457 82.4099C116.773 81.8881 115.811 81.6272 114.569 81.6272H110.197V88.4012H114.569Z" fill="#1272CC"/>
<line x1="1.77539" y1="67.1621" x2="121.211" y2="67.1621" stroke="#001233" stroke-width="2.37887"/>
</svg>
