<svg width="20" height="21" viewBox="0 0 20 21" fill="none" xmlns="http://www.w3.org/2000/svg">
<path d="M15.8337 9.7432H6.52534L10.592 5.67653C10.917 5.35153 10.917 4.8182 10.592 4.4932C10.5149 4.41595 10.4233 4.35466 10.3225 4.31284C10.2217 4.27102 10.1137 4.2495 10.0045 4.2495C9.89537 4.2495 9.7873 4.27102 9.68649 4.31284C9.58568 4.35466 9.49411 4.41595 9.41701 4.4932L3.92534 9.98487C3.84809 10.062 3.7868 10.1535 3.74498 10.2543C3.70317 10.3552 3.68164 10.4632 3.68164 10.5724C3.68164 10.6815 3.70317 10.7896 3.74498 10.8904C3.7868 10.9912 3.84809 11.0828 3.92534 11.1599L9.41701 16.6515C9.49416 16.7287 9.58575 16.7899 9.68656 16.8316C9.78736 16.8734 9.8954 16.8949 10.0045 16.8949C10.1136 16.8949 10.2217 16.8734 10.3225 16.8316C10.4233 16.7899 10.5149 16.7287 10.592 16.6515C10.6692 16.5744 10.7304 16.4828 10.7721 16.382C10.8139 16.2812 10.8354 16.1731 10.8354 16.064C10.8354 15.9549 10.8139 15.8469 10.7721 15.7461C10.7304 15.6453 10.6692 15.5537 10.592 15.4765L6.52534 11.4099H15.8337C16.292 11.4099 16.667 11.0349 16.667 10.5765C16.667 10.1182 16.292 9.7432 15.8337 9.7432Z" fill="#1272CC"/>
</svg>
