<svg width="19" height="19" viewBox="0 0 19 19" fill="none" xmlns="http://www.w3.org/2000/svg">
<path d="M17.6311 18.7045C15.5004 18.7045 13.3912 18.2443 11.3035 17.3238C9.21578 16.4034 7.31931 15.0909 5.61408 13.3863C3.90953 11.6818 2.59703 9.78973 1.67658 7.71018C0.756126 5.63064 0.295898 3.517 0.295898 1.36927V0.29541H6.32999L7.27601 5.43461L4.36124 8.37496C4.73624 9.03973 5.15385 9.67041 5.61408 10.267C6.07431 10.8636 6.56862 11.4176 7.09703 11.9289C7.59135 12.4233 8.13272 12.8964 8.72113 13.3485C9.30953 13.8005 9.94431 14.2222 10.6254 14.6136L13.5914 11.6477L18.705 12.696V18.7045H17.6311Z" fill="#001233"/>
</svg>
