<svg width="20" height="20" viewBox="0 0 20 20" fill="none" xmlns="http://www.w3.org/2000/svg">
<path d="M2.08301 3.54175C2.08301 3.37599 2.14886 3.21702 2.26607 3.09981C2.38328 2.9826 2.54225 2.91675 2.70801 2.91675H3.17301C3.96467 2.91675 4.43967 3.44925 4.71051 3.94425C4.89134 4.27425 5.02217 4.65675 5.12467 5.00341C5.1524 5.00123 5.1802 5.00011 5.20801 5.00008H15.623C16.3147 5.00008 16.8147 5.66175 16.6247 6.32758L15.1013 11.6684C14.9648 12.1475 14.6758 12.569 14.2782 12.8691C13.8807 13.1692 13.3961 13.3316 12.898 13.3317H7.94134C7.43925 13.3318 6.95105 13.1669 6.55178 12.8625C6.1525 12.558 5.86426 12.1309 5.73134 11.6467L5.09801 9.33675L4.04801 5.79675L4.04717 5.79008C3.91717 5.31758 3.79551 4.87508 3.61384 4.54508C3.43967 4.22425 3.29967 4.16675 3.17384 4.16675H2.70801C2.54225 4.16675 2.38328 4.1009 2.26607 3.98369C2.14886 3.86648 2.08301 3.70751 2.08301 3.54175ZM7.49967 17.5001C7.9417 17.5001 8.36562 17.3245 8.67819 17.0119C8.99075 16.6994 9.16634 16.2754 9.16634 15.8334C9.16634 15.3914 8.99075 14.9675 8.67819 14.6549C8.36562 14.3423 7.9417 14.1667 7.49967 14.1667C7.05765 14.1667 6.63372 14.3423 6.32116 14.6549C6.0086 14.9675 5.83301 15.3914 5.83301 15.8334C5.83301 16.2754 6.0086 16.6994 6.32116 17.0119C6.63372 17.3245 7.05765 17.5001 7.49967 17.5001ZM13.333 17.5001C13.775 17.5001 14.199 17.3245 14.5115 17.0119C14.8241 16.6994 14.9997 16.2754 14.9997 15.8334C14.9997 15.3914 14.8241 14.9675 14.5115 14.6549C14.199 14.3423 13.775 14.1667 13.333 14.1667C12.891 14.1667 12.4671 14.3423 12.1545 14.6549C11.8419 14.9675 11.6663 15.3914 11.6663 15.8334C11.6663 16.2754 11.8419 16.6994 12.1545 17.0119C12.4671 17.3245 12.891 17.5001 13.333 17.5001Z" fill="white"/>
</svg>
