<svg width="16" height="17" viewBox="0 0 16 17" fill="none" xmlns="http://www.w3.org/2000/svg">
    <path d="M5 15.5C5.55228 15.5 6 15.0523 6 14.5C6 13.9477 5.55228 13.5 5 13.5C4.44772 13.5 4 13.9477 4 14.5C4 15.0523 4.44772 15.5 5 15.5Z"
          fill="#1272CC"/>
    <path d="M12 15.5C12.5523 15.5 13 15.0523 13 14.5C13 13.9477 12.5523 13.5 12 13.5C11.4477 13.5 11 13.9477 11 14.5C11 15.0523 11.4477 15.5 12 15.5Z"
          fill="#1272CC"/>
    <path d="M2.49 1.902C2.46735 1.78869 2.40616 1.68673 2.31683 1.61344C2.2275 1.54016 2.11555 1.50007 2 1.5H0V2.5H1.59L3.51 12.098C3.53265 12.2113 3.59384 12.3133 3.68317 12.3866C3.7725 12.4598 3.88445 12.4999 4 12.5H13V11.5H4.41L4.01 9.5H13C13.1137 9.49998 13.2241 9.46118 13.3128 9.39001C13.4015 9.31883 13.4633 9.21953 13.488 9.1085L14.622 4H13.5985L12.599 8.5H3.81L2.49 1.902Z"
          fill="#1272CC"/>
    <path d="M10.793 3.793L9 5.586V1.5H8V5.586L6.207 3.793L5.5 4.5L8.5 7.5L11.5 4.5L10.793 3.793Z" fill="#1272CC"/>
</svg>
