<svg width="16" height="17" viewBox="0 0 16 17" fill="none" xmlns="http://www.w3.org/2000/svg">
    <g clip-path="url(#clip0_792_4087)">
        <path d="M8.00076 1.38867C6.59432 1.38867 5.21946 1.80573 4.05004 2.58711C2.88062 3.36849 1.96918 4.47909 1.43095 5.77848C0.89273 7.07786 0.751906 8.50767 1.02629 9.88709C1.30067 11.2665 1.97794 12.5336 2.97245 13.5281C3.96695 14.5226 5.23403 15.1999 6.61345 15.4743C7.99287 15.7486 9.42268 15.6078 10.7221 15.0696C12.0215 14.5314 13.1321 13.6199 13.9134 12.4505C14.6948 11.2811 15.1119 9.90623 15.1119 8.49978C15.1119 6.6138 14.3627 4.80506 13.0291 3.47147C11.6955 2.13788 9.88675 1.38867 8.00076 1.38867ZM1.77854 8.49978C1.77897 7.00462 2.32045 5.56012 3.30298 4.43312L12.0674 13.1976C11.1661 13.9759 10.0602 14.4793 8.88127 14.6478C7.70232 14.8163 6.49976 14.643 5.4164 14.1483C4.33305 13.6537 3.4144 12.8585 2.76956 11.8573C2.12471 10.856 1.78076 9.69072 1.77854 8.49978ZM12.6985 12.5664L3.9341 3.80201C5.1267 2.80553 6.64904 2.29143 8.2016 2.36084C9.75416 2.43025 11.2245 3.07815 12.3235 4.17708C13.4224 5.276 14.0703 6.74638 14.1397 8.29895C14.2091 9.85151 13.695 11.3738 12.6985 12.5664Z"
              fill="#CC1212"/>
    </g>
    <defs>
        <clipPath id="clip0_792_4087">
            <rect width="16" height="16" fill="white" transform="translate(0 0.5)"/>
        </clipPath>
    </defs>
</svg>
