<svg width="16" height="17" viewBox="0 0 16 17" fill="none" xmlns="http://www.w3.org/2000/svg">
    <path d="M8 4.5L8.956 6.3515L11 6.6485L9.5 8L10 10L8 8.875L6 10L6.5 8L5 6.6485L7.1 6.3515L8 4.5Z" fill="#1272CC"/>
    <path d="M8.868 15.5L8 15L10 11.5H13C13.1314 11.5002 13.2615 11.4745 13.3829 11.4243C13.5043 11.3741 13.6146 11.3004 13.7075 11.2075C13.8004 11.1146 13.8741 11.0043 13.9243 10.8829C13.9745 10.7615 14.0002 10.6314 14 10.5V4.5C14.0002 4.36862 13.9745 4.2385 13.9243 4.11708C13.8741 3.99567 13.8004 3.88535 13.7075 3.79245C13.6146 3.69956 13.5043 3.6259 13.3829 3.57572C13.2615 3.52553 13.1314 3.4998 13 3.5H3C2.86862 3.4998 2.7385 3.52553 2.61708 3.57572C2.49567 3.6259 2.38535 3.69956 2.29245 3.79245C2.19956 3.88535 2.1259 3.99567 2.07572 4.11708C2.02553 4.2385 1.9998 4.36862 2 4.5V10.5C1.9998 10.6314 2.02553 10.7615 2.07572 10.8829C2.1259 11.0043 2.19956 11.1146 2.29245 11.2075C2.38535 11.3004 2.49567 11.3741 2.61708 11.4243C2.7385 11.4745 2.86862 11.5002 3 11.5H7.5V12.5H3C2.46957 12.5 1.96086 12.2893 1.58579 11.9142C1.21071 11.5391 1 11.0304 1 10.5V4.5C0.999934 4.23734 1.05162 3.97724 1.15211 3.73456C1.25259 3.49187 1.39991 3.27137 1.58564 3.08564C1.77137 2.89991 1.99187 2.75259 2.23456 2.65211C2.47724 2.55162 2.73734 2.49993 3 2.5H13C13.2627 2.49993 13.5228 2.55162 13.7654 2.65211C14.0081 2.75259 14.2286 2.89991 14.4144 3.08564C14.6001 3.27137 14.7474 3.49187 14.8479 3.73456C14.9484 3.97724 15.0001 4.23734 15 4.5V10.5C15 11.0304 14.7893 11.5391 14.4142 11.9142C14.0391 12.2893 13.5304 12.5 13 12.5H10.5825L8.868 15.5Z"
          fill="#1272CC"/>
</svg>
