<svg width="16" height="16" viewBox="0 0 16 16" fill="none" xmlns="http://www.w3.org/2000/svg">
<g clip-path="url(#clip0_862_3561)">
<path d="M8.32862 2.04736C10.3756 2.04736 10.6159 2.05649 11.4249 2.09298C12.1731 2.12644 12.5777 2.25114 12.8483 2.3576C13.2073 2.49751 13.4627 2.66175 13.7304 2.92941C13.9981 3.19706 14.1653 3.45255 14.3022 3.81145C14.4056 4.08215 14.5334 4.48667 14.5668 5.23489C14.6033 6.04394 14.6124 6.28422 14.6124 8.33117C14.6124 10.3781 14.6033 10.6184 14.5668 11.4275C14.5334 12.1757 14.4087 12.5802 14.3022 12.8509C14.1623 13.2098 13.9981 13.4653 13.7304 13.7329C13.4627 14.0006 13.2073 14.1679 12.8483 14.3047C12.5777 14.4082 12.1731 14.5359 11.4249 14.5694C10.6159 14.6059 10.3756 14.615 8.32862 14.615C6.28167 14.615 6.04139 14.6059 5.23234 14.5694C4.48412 14.5359 4.0796 14.4112 3.8089 14.3047C3.45 14.1648 3.19451 14.0006 2.92685 13.7329C2.6592 13.4653 2.49191 13.2098 2.35505 12.8509C2.25163 12.5802 2.12389 12.1757 2.09043 11.4275C2.05393 10.6184 2.04481 10.3781 2.04481 8.33117C2.04481 6.28422 2.05393 6.04394 2.09043 5.23489C2.12389 4.48667 2.24859 4.08215 2.35505 3.81145C2.49496 3.45255 2.6592 3.19706 2.92685 2.92941C3.19451 2.66175 3.45 2.49447 3.8089 2.3576C4.0796 2.25419 4.48412 2.12644 5.23234 2.09298C6.04139 2.05344 6.28471 2.04736 8.32862 2.04736ZM8.32862 0.666504C6.24821 0.666504 5.98664 0.675629 5.16847 0.712127C4.35334 0.748625 3.79673 0.879411 3.31009 1.06799C2.80519 1.26264 2.37938 1.52726 1.95356 1.95307C1.52775 2.37889 1.26618 2.80774 1.06848 3.3096C0.8799 3.79624 0.749114 4.35284 0.712615 5.17102C0.676117 5.98615 0.666992 6.24772 0.666992 8.32813C0.666992 10.4085 0.676117 10.6701 0.712615 11.4883C0.749114 12.3034 0.8799 12.86 1.06848 13.3497C1.26313 13.8546 1.52775 14.2804 1.95356 14.7062C2.37938 15.132 2.80823 15.3936 3.31009 15.5913C3.79673 15.7799 4.35334 15.9107 5.17151 15.9472C5.98968 15.9837 6.24821 15.9928 8.33167 15.9928C10.4151 15.9928 10.6737 15.9837 11.4918 15.9472C12.307 15.9107 12.8636 15.7799 13.3532 15.5913C13.8581 15.3967 14.284 15.132 14.7098 14.7062C15.1356 14.2804 15.3972 13.8516 15.5949 13.3497C15.7834 12.8631 15.9142 12.3065 15.9507 11.4883C15.9872 10.6701 15.9963 10.4116 15.9963 8.32813C15.9963 6.24468 15.9872 5.98615 15.9507 5.16798C15.9142 4.35284 15.7834 3.79624 15.5949 3.30656C15.4002 2.80166 15.1356 2.37585 14.7098 1.95003C14.284 1.52422 13.8551 1.26264 13.3532 1.06495C12.8666 0.87637 12.31 0.745584 11.4918 0.709085C10.6706 0.675629 10.409 0.666504 8.32862 0.666504Z" fill="#023E7D"/>
<path d="M8.32832 4.39551C6.15667 4.39551 4.39258 6.15656 4.39258 8.33125C4.39258 10.5059 6.15363 12.267 8.32832 12.267C10.503 12.267 12.2641 10.5059 12.2641 8.33125C12.2641 6.15656 10.503 4.39551 8.32832 4.39551ZM8.32832 10.8831C6.91705 10.8831 5.77343 9.73948 5.77343 8.32821C5.77343 6.91694 6.91705 5.77332 8.32832 5.77332C9.7396 5.77332 10.8832 6.91694 10.8832 8.32821C10.8832 9.73948 9.7396 10.8831 8.32832 10.8831Z" fill="#023E7D"/>
<path d="M12.4195 5.15581C12.9268 5.15581 13.3381 4.74457 13.3381 4.23727C13.3381 3.72997 12.9268 3.31873 12.4195 3.31873C11.9122 3.31873 11.501 3.72997 11.501 4.23727C11.501 4.74457 11.9122 5.15581 12.4195 5.15581Z" fill="#023E7D"/>
</g>
<defs>
<clipPath id="clip0_862_3561">
<rect width="15.3232" height="15.3232" fill="white" transform="translate(0.666992 0.666504)"/>
</clipPath>
</defs>
</svg>
