<svg width="16" height="17" viewBox="0 0 16 17" fill="none" xmlns="http://www.w3.org/2000/svg">
<g clip-path="url(#clip0_862_3428)">
<path d="M15.4667 15.9665L11.2 11.6999M6.93332 13.8332C6.09286 13.8332 5.26063 13.6677 4.48415 13.346C3.70767 13.0244 3.00214 12.553 2.40784 11.9587C1.81355 11.3644 1.34213 10.6589 1.0205 9.88238C0.698866 9.10589 0.533325 8.27366 0.533325 7.4332C0.533325 6.59274 0.698866 5.76051 1.0205 4.98403C1.34213 4.20755 1.81355 3.50201 2.40784 2.90772C3.00214 2.31342 3.70767 1.842 4.48415 1.52037C5.26063 1.19874 6.09286 1.0332 6.93332 1.0332C8.63071 1.0332 10.2586 1.70749 11.4588 2.90772C12.659 4.10795 13.3333 5.73582 13.3333 7.4332C13.3333 9.13059 12.659 10.7585 11.4588 11.9587C10.2586 13.1589 8.63071 13.8332 6.93332 13.8332Z" stroke="#9DADCB" stroke-width="1.06667"/>
</g>
<defs>
<clipPath id="clip0_862_3428">
<rect width="16" height="16" fill="white" transform="translate(0 0.5)"/>
</clipPath>
</defs>
</svg>
