<svg width="96" height="16" viewBox="0 0 96 16" fill="none" xmlns="http://www.w3.org/2000/svg">
<path d="M14.6565 7.14875L11.8377 9.60875L12.6821 13.2712C12.7268 13.4627 12.714 13.6631 12.6454 13.8474C12.5768 14.0316 12.4555 14.1916 12.2965 14.3072C12.1375 14.4229 11.9479 14.4891 11.7515 14.4976C11.555 14.5061 11.3605 14.4565 11.1921 14.355L7.99771 12.4175L4.81021 14.355C4.64182 14.4565 4.44724 14.5061 4.25082 14.4976C4.05439 14.4891 3.86483 14.4229 3.70583 14.3072C3.54683 14.1916 3.42545 14.0316 3.35686 13.8474C3.28828 13.6631 3.27553 13.4627 3.32021 13.2712L4.16333 9.6125L1.34396 7.14875C1.19484 7.02014 1.08701 6.85036 1.03399 6.66071C0.980978 6.47107 0.985134 6.26999 1.04594 6.08269C1.10675 5.89539 1.2215 5.73022 1.37581 5.60788C1.53011 5.48554 1.71711 5.41149 1.91333 5.395L5.62958 5.07312L7.08021 1.61312C7.15596 1.43157 7.28374 1.27649 7.44745 1.16741C7.61116 1.05833 7.80349 1.00012 8.00021 1.00012C8.19693 1.00012 8.38926 1.05833 8.55297 1.16741C8.71668 1.27649 8.84446 1.43157 8.92021 1.61312L10.3752 5.07312L14.0902 5.395C14.2864 5.41149 14.4734 5.48554 14.6277 5.60788C14.782 5.73022 14.8968 5.89539 14.9576 6.08269C15.0184 6.26999 15.0226 6.47107 14.9695 6.66071C14.9165 6.85036 14.8087 7.02014 14.6596 7.14875H14.6565Z" fill="#FA9E32"/>
<path d="M34.6565 7.14875L31.8377 9.60875L32.6821 13.2712C32.7268 13.4627 32.714 13.6631 32.6454 13.8474C32.5768 14.0316 32.4555 14.1916 32.2965 14.3072C32.1375 14.4229 31.9479 14.4891 31.7515 14.4976C31.555 14.5061 31.3605 14.4565 31.1921 14.355L27.9977 12.4175L24.8102 14.355C24.6418 14.4565 24.4472 14.5061 24.2508 14.4976C24.0544 14.4891 23.8648 14.4229 23.7058 14.3072C23.5468 14.1916 23.4255 14.0316 23.3569 13.8474C23.2883 13.6631 23.2755 13.4627 23.3202 13.2712L24.1633 9.6125L21.344 7.14875C21.1948 7.02014 21.087 6.85036 21.034 6.66071C20.981 6.47107 20.9851 6.26999 21.0459 6.08269C21.1067 5.89539 21.2215 5.73022 21.3758 5.60788C21.5301 5.48554 21.7171 5.41149 21.9133 5.395L25.6296 5.07312L27.0802 1.61312C27.156 1.43157 27.2837 1.27649 27.4475 1.16741C27.6112 1.05833 27.8035 1.00012 28.0002 1.00012C28.1969 1.00012 28.3893 1.05833 28.553 1.16741C28.7167 1.27649 28.8445 1.43157 28.9202 1.61312L30.3752 5.07312L34.0902 5.395C34.2864 5.41149 34.4734 5.48554 34.6277 5.60788C34.782 5.73022 34.8968 5.89539 34.9576 6.08269C35.0184 6.26999 35.0226 6.47107 34.9695 6.66071C34.9165 6.85036 34.8087 7.02014 34.6596 7.14875H34.6565Z" fill="#FA9E32"/>
<path d="M54.6565 7.14875L51.8377 9.60875L52.6821 13.2712C52.7268 13.4627 52.714 13.6631 52.6454 13.8474C52.5768 14.0316 52.4555 14.1916 52.2965 14.3072C52.1375 14.4229 51.9479 14.4891 51.7515 14.4976C51.555 14.5061 51.3605 14.4565 51.1921 14.355L47.9977 12.4175L44.8102 14.355C44.6418 14.4565 44.4472 14.5061 44.2508 14.4976C44.0544 14.4891 43.8648 14.4229 43.7058 14.3072C43.5468 14.1916 43.4255 14.0316 43.3569 13.8474C43.2883 13.6631 43.2755 13.4627 43.3202 13.2712L44.1633 9.6125L41.344 7.14875C41.1948 7.02014 41.087 6.85036 41.034 6.66071C40.981 6.47107 40.9851 6.26999 41.0459 6.08269C41.1067 5.89539 41.2215 5.73022 41.3758 5.60788C41.5301 5.48554 41.7171 5.41149 41.9133 5.395L45.6296 5.07312L47.0802 1.61312C47.156 1.43157 47.2837 1.27649 47.4475 1.16741C47.6112 1.05833 47.8035 1.00012 48.0002 1.00012C48.1969 1.00012 48.3893 1.05833 48.553 1.16741C48.7167 1.27649 48.8445 1.43157 48.9202 1.61312L50.3752 5.07312L54.0902 5.395C54.2864 5.41149 54.4734 5.48554 54.6277 5.60788C54.782 5.73022 54.8968 5.89539 54.9576 6.08269C55.0184 6.26999 55.0226 6.47107 54.9695 6.66071C54.9165 6.85036 54.8087 7.02014 54.6596 7.14875H54.6565Z" fill="#FA9E32"/>
<path d="M74.8314 6.11872C74.7797 5.9548 74.6803 5.81006 74.5457 5.70314C74.4112 5.59622 74.2477 5.53199 74.0764 5.51872L70.3601 5.19747C70.3376 5.19526 70.3162 5.18701 70.298 5.17358C70.2799 5.16015 70.2657 5.14206 70.257 5.12122L68.8051 1.66122C68.7379 1.50338 68.6257 1.36879 68.4826 1.27419C68.3394 1.17959 68.1717 1.12915 68.0001 1.12915C67.8285 1.12915 67.6608 1.17959 67.5176 1.27419C67.3745 1.36879 67.2623 1.50338 67.1951 1.66122L65.7432 5.12122C65.7345 5.14206 65.7203 5.16015 65.7022 5.17358C65.684 5.18701 65.6626 5.19526 65.6401 5.19747L61.9239 5.51872C61.7525 5.53199 61.589 5.59622 61.4545 5.70314C61.32 5.81006 61.2205 5.9548 61.1689 6.11872C61.1142 6.28288 61.1094 6.45956 61.1551 6.62642C61.2009 6.79329 61.295 6.94286 61.4257 7.05622L64.2451 9.5156C64.2624 9.53093 64.2752 9.55062 64.2822 9.57262C64.2893 9.59461 64.2903 9.61809 64.2851 9.6406L63.4376 13.2975C63.3981 13.4658 63.4094 13.6421 63.47 13.8041C63.5306 13.9661 63.6379 14.1064 63.7782 14.2075C63.9164 14.3094 64.082 14.3676 64.2535 14.3745C64.4251 14.3814 64.5948 14.3367 64.7407 14.2462L67.9351 12.3087C67.9539 12.2971 67.9755 12.2909 67.9976 12.2909C68.0197 12.2909 68.0413 12.2971 68.0601 12.3087L71.2545 14.2462C71.4019 14.3365 71.5728 14.3811 71.7455 14.3743C71.9183 14.3676 72.0851 14.3098 72.2251 14.2083C72.365 14.1068 72.4718 13.9661 72.5318 13.804C72.5919 13.6419 72.6026 13.4657 72.5626 13.2975L71.7176 9.63935C71.7124 9.61684 71.7134 9.59336 71.7205 9.57137C71.7275 9.54938 71.7403 9.52968 71.7576 9.51435L74.577 7.05497C74.707 6.94141 74.8005 6.79193 74.8458 6.62533C74.8911 6.45873 74.886 6.28247 74.8314 6.11872ZM74.0814 6.48872L71.262 8.9481C71.1418 9.05262 71.0525 9.18795 71.0036 9.3395C70.9547 9.49105 70.9481 9.65307 70.9845 9.8081L71.8295 13.4662C71.8357 13.4908 71.8343 13.5167 71.8255 13.5405C71.8167 13.5643 71.8009 13.5848 71.7801 13.5993C71.7613 13.6144 71.7382 13.6231 71.7141 13.6241C71.6901 13.6251 71.6663 13.6184 71.6464 13.605L68.452 11.6675C68.3158 11.5847 68.1595 11.5409 68.0001 11.5409C67.8407 11.5409 67.6844 11.5847 67.5482 11.6675L64.3539 13.605C64.3339 13.6184 64.3101 13.6251 64.2861 13.6241C64.262 13.6231 64.2389 13.6144 64.2201 13.5993C64.1993 13.5848 64.1835 13.5643 64.1747 13.5405C64.1659 13.5167 64.1645 13.4908 64.1707 13.4662L65.0157 9.8081C65.0521 9.65307 65.0455 9.49105 64.9966 9.3395C64.9477 9.18795 64.8584 9.05262 64.7382 8.9481L61.9189 6.48872C61.8996 6.47232 61.8857 6.45046 61.8791 6.42602C61.8726 6.40158 61.8735 6.37571 61.882 6.35185C61.8883 6.32808 61.902 6.30693 61.9211 6.29143C61.9402 6.27593 61.9637 6.26689 61.9882 6.2656L65.7051 5.94435C65.8642 5.93079 66.0166 5.87394 66.1457 5.77997C66.2748 5.68599 66.3758 5.55847 66.4376 5.41122L67.8895 1.95122C67.8996 1.92975 67.9156 1.91159 67.9356 1.89887C67.9556 1.88615 67.9789 1.8794 68.0026 1.8794C68.0263 1.8794 68.0496 1.88615 68.0696 1.89887C68.0896 1.91159 68.1056 1.92975 68.1157 1.95122L69.5626 5.41122C69.6242 5.55812 69.7248 5.6854 69.8534 5.77935C69.9821 5.8733 70.1339 5.93035 70.2926 5.94435L74.0095 6.2656C74.034 6.26689 74.0575 6.27593 74.0766 6.29143C74.0957 6.30693 74.1094 6.32808 74.1157 6.35185C74.1245 6.37547 74.1258 6.40118 74.1197 6.4256C74.1136 6.45002 74.1002 6.47202 74.0814 6.48872Z" fill="#FA9E32"/>
<path d="M67.5482 11.6675C67.6844 11.5847 67.8407 11.5409 68.0001 11.5409L68.0026 1.8794C67.9789 1.8794 67.9556 1.88615 67.9356 1.89887C67.9156 1.91159 67.8996 1.92975 67.8895 1.95122L66.4376 5.41122C66.3758 5.55847 66.2748 5.68599 66.1457 5.77997C66.0166 5.87394 65.8642 5.93079 65.7051 5.94435L61.9882 6.2656C61.9637 6.26689 61.9402 6.27593 61.9211 6.29143C61.902 6.30693 61.8883 6.32808 61.882 6.35185C61.8735 6.37571 61.8726 6.40158 61.8791 6.42602C61.8857 6.45046 61.8996 6.47232 61.9189 6.48872L64.7382 8.9481C64.8584 9.05262 64.9477 9.18795 64.9966 9.3395C65.0455 9.49105 65.0521 9.65307 65.0157 9.8081L64.1707 13.4662C64.1645 13.4908 64.1659 13.5167 64.1747 13.5405C64.1835 13.5643 64.1993 13.5848 64.2201 13.5993C64.2389 13.6144 64.262 13.6231 64.2861 13.6241C64.3101 13.6251 64.3339 13.6184 64.3539 13.605L67.5482 11.6675Z" fill="#FA9E32"/>
<path d="M94.8314 6.11872C94.7797 5.9548 94.6803 5.81006 94.5457 5.70314C94.4112 5.59621 94.2477 5.53199 94.0764 5.51872L90.3601 5.19747C90.3376 5.19526 90.3162 5.18701 90.298 5.17358C90.2799 5.16015 90.2657 5.14206 90.257 5.12122L88.8051 1.66122C88.7379 1.50338 88.6257 1.36879 88.4826 1.27419C88.3394 1.17959 88.1717 1.12915 88.0001 1.12915C87.8285 1.12915 87.6608 1.17959 87.5176 1.27419C87.3745 1.36879 87.2623 1.50338 87.1951 1.66122L85.7432 5.12122C85.7345 5.14206 85.7203 5.16015 85.7022 5.17358C85.684 5.18701 85.6626 5.19526 85.6401 5.19747L81.9239 5.51872C81.7525 5.53199 81.589 5.59621 81.4545 5.70314C81.32 5.81006 81.2205 5.9548 81.1689 6.11872C81.1142 6.28288 81.1094 6.45956 81.1551 6.62642C81.2009 6.79329 81.295 6.94286 81.4257 7.05622L84.2451 9.5156C84.2624 9.53093 84.2752 9.55062 84.2822 9.57262C84.2893 9.59461 84.2903 9.61809 84.2851 9.6406L83.4376 13.2975C83.3981 13.4658 83.4094 13.6421 83.47 13.8041C83.5306 13.9661 83.6379 14.1064 83.7782 14.2075C83.9164 14.3094 84.082 14.3676 84.2535 14.3745C84.4251 14.3814 84.5948 14.3367 84.7407 14.2462L87.9351 12.3087C87.9539 12.2971 87.9755 12.2909 87.9976 12.2909C88.0197 12.2909 88.0413 12.2971 88.0601 12.3087L91.2545 14.2462C91.4019 14.3365 91.5728 14.3811 91.7455 14.3743C91.9183 14.3676 92.0851 14.3098 92.2251 14.2083C92.365 14.1068 92.4718 13.9661 92.5318 13.804C92.5919 13.6419 92.6026 13.4657 92.5626 13.2975L91.7176 9.63935C91.7124 9.61684 91.7134 9.59336 91.7205 9.57137C91.7275 9.54937 91.7403 9.52968 91.7576 9.51435L94.577 7.05497C94.707 6.94141 94.8005 6.79193 94.8458 6.62533C94.8911 6.45873 94.886 6.28247 94.8314 6.11872ZM94.0814 6.48872L91.262 8.9481C91.1418 9.05262 91.0525 9.18795 91.0036 9.3395C90.9547 9.49105 90.9481 9.65307 90.9845 9.80809L91.8295 13.4662C91.8357 13.4908 91.8343 13.5167 91.8255 13.5405C91.8167 13.5643 91.8009 13.5848 91.7801 13.5993C91.7613 13.6144 91.7382 13.6231 91.7141 13.6241C91.6901 13.6251 91.6663 13.6184 91.6464 13.605L88.452 11.6675C88.3158 11.5847 88.1595 11.5409 88.0001 11.5409C87.8407 11.5409 87.6844 11.5847 87.5482 11.6675L84.3539 13.605C84.3339 13.6184 84.3101 13.6251 84.2861 13.6241C84.262 13.6231 84.2389 13.6144 84.2201 13.5993C84.1993 13.5848 84.1835 13.5643 84.1747 13.5405C84.1659 13.5167 84.1645 13.4908 84.1707 13.4662L85.0157 9.80809C85.0521 9.65307 85.0455 9.49105 84.9966 9.3395C84.9477 9.18795 84.8584 9.05262 84.7382 8.9481L81.9189 6.48872C81.8996 6.47232 81.8857 6.45046 81.8791 6.42602C81.8726 6.40158 81.8735 6.37571 81.882 6.35185C81.8883 6.32808 81.902 6.30693 81.9211 6.29143C81.9402 6.27593 81.9637 6.26689 81.9882 6.2656L85.7051 5.94435C85.8642 5.93079 86.0166 5.87394 86.1457 5.77997C86.2748 5.68599 86.3758 5.55847 86.4376 5.41122L87.8895 1.95122C87.8996 1.92975 87.9156 1.91159 87.9356 1.89887C87.9556 1.88615 87.9789 1.8794 88.0026 1.8794C88.0263 1.8794 88.0496 1.88615 88.0696 1.89887C88.0896 1.91159 88.1056 1.92975 88.1157 1.95122L89.5626 5.41122C89.6242 5.55812 89.7248 5.6854 89.8534 5.77935C89.9821 5.8733 90.1339 5.93035 90.2926 5.94435L94.0095 6.2656C94.034 6.26689 94.0575 6.27593 94.0766 6.29143C94.0957 6.30693 94.1094 6.32808 94.1157 6.35185C94.1245 6.37547 94.1258 6.40118 94.1197 6.4256C94.1136 6.45002 94.1002 6.47202 94.0814 6.48872Z" fill="#FA9E32"/>
</svg>
