<svg width="21" height="16" viewBox="0 0 21 16" fill="none" xmlns="http://www.w3.org/2000/svg">
<path fill-rule="evenodd" clip-rule="evenodd" d="M19.7577 0.124966C20.0403 0.269298 20.2009 0.526985 20.2016 0.836769C20.2024 1.19833 17.0274 15.1531 16.9056 15.3233C16.617 15.7267 16.0854 15.8814 15.6905 15.6769C15.5739 15.6166 14.4087 14.8392 13.1013 13.9495C11.0371 12.5449 10.7102 12.3426 10.6188 12.4142C10.5609 12.4595 9.96692 13.0159 9.29882 13.6506C8.04228 14.8445 7.90031 14.9391 7.4987 14.8508C7.10338 14.7638 7.00567 14.5547 6.06664 11.7854L5.17912 9.16804L2.76616 8.51056C0.0970037 7.78323 0 7.74125 0 7.31334C0 7.1442 0.0438963 7.02894 0.145537 6.93098C0.325315 6.75771 18.9879 0.00410659 19.2985 -9.17044e-05C19.4134 -0.00161836 19.62 0.0546126 19.7577 0.124966ZM11.1943 5.72766C6.82253 8.23468 5.96442 8.74916 5.93076 8.88376C5.8711 9.12173 7.30075 13.3639 7.4325 13.3397C7.50676 13.3262 7.55835 13.0695 7.66609 12.178C7.74213 11.5485 7.82789 10.8761 7.85666 10.6837L7.90894 10.3338L12.3052 6.73983C16.0805 3.65351 16.7019 3.12211 16.7044 2.97771C16.7069 2.82975 16.6107 2.73236 16.4619 2.73236C16.4375 2.73236 14.0671 4.08027 11.1943 5.72766Z" fill="#023E7D"/>
</svg>
