<svg width="17" height="17" viewBox="0 0 17 17" fill="none" xmlns="http://www.w3.org/2000/svg">
<g clip-path="url(#clip0_862_3553)">
<path d="M13.228 3.48877C13.1205 3.43316 13.0159 3.37219 12.9146 3.30611C12.6201 3.11122 12.35 2.8816 12.1102 2.62219C11.5096 1.93473 11.2854 1.23735 11.2033 0.749547H11.2061C11.1375 0.343867 11.1658 0.0819092 11.1708 0.0819092H8.43653V10.6615C8.43653 10.8031 8.43653 10.9439 8.43087 11.0827C8.43087 11.0997 8.42874 11.1153 8.42804 11.1344C8.42804 11.1415 8.42804 11.15 8.42591 11.1578V11.1641C8.3972 11.5436 8.27573 11.9102 8.07219 12.2317C7.86864 12.5532 7.58927 12.8197 7.25865 13.0077C6.91372 13.2041 6.52359 13.3071 6.12675 13.3065C4.85337 13.3065 3.82052 12.2672 3.82052 10.9836C3.82052 9.69929 4.85337 8.65996 6.12675 8.65996C6.36799 8.65996 6.60781 8.69819 6.83702 8.77324L6.84055 5.98657C6.14445 5.8967 5.43728 5.95221 4.7637 6.14962C4.09011 6.34703 3.46473 6.68205 2.92703 7.13352C2.45577 7.54313 2.05956 8.03189 1.75622 8.57783C1.64091 8.77678 1.20513 9.57752 1.15278 10.876C1.11953 11.6123 1.34096 12.3769 1.44637 12.692V12.6991C1.51216 12.8846 1.76966 13.5189 2.18846 14.0535C2.52619 14.4825 2.92522 14.8594 3.37271 15.1721V15.165L3.37908 15.1721C4.70198 16.0712 6.16991 16.0125 6.16991 16.0125C6.42387 16.0018 7.27492 16.0125 8.24127 15.5544C9.31304 15.0461 9.92284 14.2892 9.92284 14.2892C10.3127 13.8369 10.6228 13.3214 10.8397 12.7649C11.0873 12.1135 11.1693 11.3333 11.1693 11.0218V5.40814C11.2026 5.42797 11.6447 5.72037 11.6447 5.72037C11.6447 5.72037 12.2814 6.12888 13.274 6.39438C13.9856 6.58341 14.9456 6.62377 14.9456 6.62377V3.9072C14.6096 3.94401 13.9269 3.83781 13.2273 3.48948L13.228 3.48877Z" fill="#023E7D"/>
</g>
<defs>
<clipPath id="clip0_862_3553">
<rect width="16.0956" height="16.0956" fill="white"/>
</clipPath>
</defs>
</svg>
