<svg width="24" height="24" viewBox="0 0 24 24" fill="none" xmlns="http://www.w3.org/2000/svg">
<g clip-path="url(#clip0_25_6413)">
<g clip-path="url(#clip1_25_6413)">
<path d="M21.3333 3.33325H2.66667C2.53 3.33325 2.39534 3.34325 2.264 3.36325L1 3.49994L0.441336 4.52992C0.152768 4.96581 -0.000754695 5.47716 2.78961e-06 5.99992V17.9999C2.78961e-06 18.7072 0.280954 19.3854 0.781051 19.8855C1.28115 20.3856 1.95943 20.6666 2.66667 20.6666H21.3333C22.0406 20.6666 22.7189 20.3856 23.219 19.8855C23.7191 19.3854 24 18.7072 24 17.9999V5.99992C24 5.29267 23.7191 4.6144 23.219 4.1143C22.7189 3.6142 22.0406 3.33325 21.3333 3.33325Z" fill="#00247D"/>
<path d="M25.3077 3H21.9575L15.247 7.69837V3H8.06074V6.69229L2.8809 3.06468C2.0169 3.19374 1.19445 3.52085 0.477817 4.02045L7.23576 8.749H4.7407L-0.61018 4.99921C-0.76798 5.18366 -0.914372 5.37757 -1.04854 5.57986L3.48023 8.749H-2V15.9352H3.58371L-2 19.9107V21.6842H2.78891L8.06074 17.9934V21.6842H15.247V16.9859L21.9561 21.6842H25.3077V18.7681L21.2619 15.9352H25.3077V8.749H21.2633L25.3077 5.91618V3Z" fill="#EEEEEE"/>
<path d="M13.8097 3H9.49799V10.1862H-2V14.498H9.49799V21.6842H13.8097V14.498H25.3077V10.1862H13.8097V3Z" fill="#CF1B2B"/>
<path d="M25.3077 3H23.2079L15.247 8.57509V8.749H17.5049L25.3077 3.28458V3ZM0.477808 4.02045C0.0754291 4.29966 -0.290122 4.62851 -0.610189 4.99921L4.74069 8.749H7.23431L0.477808 4.02045ZM7.25156 15.9352L-0.945068 21.6842H1.53706L8.06073 17.1167V15.9352H7.25156ZM25.3077 21.3997V19.6462L20.0086 15.9352H17.5035L25.3077 21.3997Z" fill="#CF1B2B"/>
</g>
</g>
<defs>
<clipPath id="clip0_25_6413">
<rect width="24" height="24" fill="white"/>
</clipPath>
<clipPath id="clip1_25_6413">
<rect y="3.33325" width="24" height="17.3333" rx="3" fill="white"/>
</clipPath>
</defs>
</svg>
