<svg width="24" height="24" viewBox="0 0 24 24" fill="none" xmlns="http://www.w3.org/2000/svg">
<path d="M0 9.375H24V14.625H0V9.375Z" fill="#E6E7E8"/>
<path d="M20.25 3.75H3.75C1.26488 3.75 0 5.59688 0 7.875V9.375H24V7.875C24 5.59688 22.7351 3.75 20.25 3.75Z" fill="#1B75BB"/>
<path d="M0 16.125C0 18.4031 1.26488 20.25 3.75 20.25H20.25C22.7351 20.25 24 18.4031 24 16.125V14.625H0V16.125Z" fill="#29B473"/>
<path d="M4.29418 8.36657C4.10166 8.36657 3.91103 8.32864 3.73318 8.25495C3.55533 8.18125 3.39374 8.07324 3.25765 7.93707C3.12155 7.80091 3.01362 7.63926 2.94001 7.46138C2.86641 7.28349 2.82858 7.09284 2.82868 6.90032C2.82858 6.51151 2.98291 6.13858 3.25773 5.86355C3.53256 5.58852 3.90537 5.4339 4.29418 5.4337C4.34968 5.4337 4.40518 5.43782 4.4588 5.4442C4.19847 5.28916 3.90117 5.20716 3.59818 5.20682C3.1552 5.21615 2.73352 5.39866 2.42353 5.71524C2.11355 6.03182 1.93994 6.45725 1.93994 6.90032C1.93994 7.34339 2.11355 7.76883 2.42353 8.0854C2.73352 8.40198 3.1552 8.5845 3.59818 8.59382C3.90111 8.59343 4.19837 8.51157 4.4588 8.35682C4.40518 8.36245 4.35005 8.36657 4.29418 8.36657ZM10.7404 5.20532L10.9013 5.5342L11.2651 5.58745L11.0037 5.84357L11.0652 6.20507L10.7404 6.0337L10.4153 6.20507L10.4768 5.84357L10.2151 5.58745L10.5788 5.5342L10.7404 5.20532ZM10.7404 6.39745L10.9013 6.7282L11.2651 6.7837L11.0037 7.03795L11.0652 7.39907L10.7404 7.22807L10.4153 7.39907L10.4768 7.03795L10.2151 6.7837L10.5788 6.7282L10.7404 6.39745ZM10.7404 7.5937L10.9013 7.9237L11.2651 7.9762L11.0037 8.23195L11.0652 8.59345L10.7404 8.4232L10.4153 8.59345L10.4768 8.23195L10.2151 7.9762L10.5788 7.9237L10.7404 7.5937ZM9.39005 5.20532L9.55393 5.5342L9.91655 5.58745L9.65405 5.84357L9.71555 6.20507L9.39005 6.0337L9.06755 6.20507L9.12793 5.84357L8.86618 5.58745L9.2288 5.5342L9.39005 5.20532ZM9.39005 6.39745L9.55393 6.7282L9.91655 6.7837L9.65405 7.03795L9.71555 7.39907L9.39005 7.22807L9.06755 7.39907L9.12793 7.03795L8.86618 6.7837L9.2288 6.7282L9.39005 6.39745ZM9.39005 7.5937L9.55393 7.9237L9.91655 7.9762L9.65405 8.23195L9.71555 8.59345L9.39005 8.4232L9.06755 8.59345L9.12793 8.23195L8.86618 7.9762L9.2288 7.9237L9.39005 7.5937ZM8.04193 5.20532L8.20393 5.5342L8.56768 5.58745L8.30255 5.84357L8.36705 6.20507L8.04193 6.0337L7.71643 6.20507L7.77943 5.84357L7.51505 5.58745L7.8788 5.5342L8.04193 5.20532ZM8.04193 6.39745L8.20393 6.7282L8.56768 6.7837L8.30255 7.03795L8.36705 7.39907L8.04193 7.22807L7.71643 7.39907L7.77943 7.03795L7.51505 6.7837L7.8788 6.7282L8.04193 6.39745ZM8.04193 7.5937L8.20393 7.9237L8.56768 7.9762L8.30255 8.23195L8.36705 8.59345L8.04193 8.4232L7.71643 8.59345L7.77943 8.23195L7.51505 7.9762L7.8788 7.9237L8.04193 7.5937ZM6.69268 6.39745L6.85505 6.7282L7.21805 6.7837L6.95555 7.03795L7.01818 7.39907L6.69268 7.22807L6.36755 7.39907L6.4313 7.03795L6.16655 6.7837L6.53068 6.7282L6.69268 6.39745ZM6.69268 7.5937L6.85505 7.9237L7.21805 7.9762L6.95555 8.23195L7.01818 8.59345L6.69268 8.4232L6.36755 8.59345L6.4313 8.23195L6.16655 7.9762L6.53068 7.9237L6.69268 7.5937ZM5.3363 7.5937L5.49868 7.9237L5.86243 7.9762L5.59955 8.23195L5.66255 8.59345L5.3363 8.4232L5.01118 8.59345L5.07343 8.23195L4.81093 7.9762L5.17393 7.9237L5.3363 7.5937Z" fill="#E6E7E8"/>
<path d="M0 9.375H24V10.125H0V9.375ZM0 14.25H24V15H0V14.25Z" fill="#EC1C24"/>
</svg>
