<svg width="183" height="40" viewBox="0 0 183 40" fill="none" xmlns="http://www.w3.org/2000/svg">
<path fill-rule="evenodd" clip-rule="evenodd" d="M21.4377 4.79102C21.4377 3.80052 22.2407 2.99756 23.2312 2.99756H29.0377C30.0282 2.99756 30.8312 3.80052 30.8312 4.79102V9.49092H41.8909C42.8814 9.49092 43.6843 10.2939 43.6843 11.2844C43.6843 12.2749 42.8814 13.0779 41.8909 13.0779H30.8312V17.9558H38.323C39.3135 17.9558 40.1165 18.7588 40.1165 19.7493C40.1165 20.7398 39.3135 21.5428 38.323 21.5428H30.8312V26.4589H51.7168C52.7073 26.4589 53.5102 27.2618 53.5102 28.2524C53.5102 29.2429 52.7073 30.0458 51.7168 30.0458H29.0377C28.0472 30.0458 27.2442 29.2429 27.2442 28.2524V19.7493V11.2844V6.58449H23.2312C22.2407 6.58449 21.4377 5.78153 21.4377 4.79102ZM34.518 34.6186C34.518 35.9815 33.4132 37.0863 32.0504 37.0863C30.6876 37.0863 29.5828 35.9815 29.5828 34.6186C29.5828 33.2558 30.6876 32.151 32.0504 32.151C33.4132 32.151 34.518 33.2558 34.518 34.6186ZM45.6851 37.0863C47.048 37.0863 48.1527 35.9815 48.1527 34.6186C48.1527 33.2558 47.048 32.151 45.6851 32.151C44.3223 32.151 43.2175 33.2558 43.2175 34.6186C43.2175 35.9815 44.3223 37.0863 45.6851 37.0863Z" fill="#0466C8"/>
<path d="M22.0512 28.2589V11.3164L13.5672 21.1345L5.33765 11.3164V28.2589" stroke="#001233" stroke-width="3.58693" stroke-linecap="round" stroke-linejoin="round"/>
<path d="M57.7546 28.2589V11.3164H66.4803C70.8919 11.3164 74.4682 14.8927 74.4682 19.3043V20.271C74.4682 24.6826 70.8919 28.2589 66.4803 28.2589H57.7546Z" stroke="#001233" stroke-width="3.58693" stroke-linecap="round" stroke-linejoin="round"/>
<mask id="path-4-outside-1_862_3440" maskUnits="userSpaceOnUse" x="86.082" y="8.77246" width="97" height="22" fill="black">
<rect fill="white" x="86.082" y="8.77246" width="97" height="22"/>
<path d="M101.268 14.8847C101.268 16.8327 100.392 18.2007 98.6415 18.9887C100.349 19.5577 101.476 20.5099 102.023 21.845C102.22 22.3484 102.319 22.9503 102.319 23.6507C102.319 24.3293 102.187 24.9968 101.925 25.6535C101.684 26.2882 101.29 26.8463 100.743 27.3279C99.5826 28.2909 97.7988 28.7725 95.3911 28.7725H88.8905C88.5622 28.7725 88.2776 28.6521 88.0369 28.4113C87.7961 28.1705 87.6757 27.886 87.6757 27.5577V11.2404C87.6757 10.9121 87.7961 10.6276 88.0369 10.3868C88.2776 10.1241 88.5622 9.99282 88.8905 9.99282H95.2598C97.2297 9.99282 98.7181 10.4525 99.7249 11.3717C100.754 12.2691 101.268 13.4401 101.268 14.8847ZM98.9369 15.0489C98.9369 14.2171 98.5977 13.5496 97.9192 13.0462C97.2625 12.5427 96.3104 12.291 95.0628 12.291H90.1381V18.1022H94.6032C96.9233 18.1022 98.3022 17.4894 98.74 16.2636C98.8713 15.8916 98.9369 15.4866 98.9369 15.0489ZM95.1613 26.4743C97.7003 26.4743 99.2215 25.8614 99.7249 24.6357C99.8781 24.2417 99.9547 23.8258 99.9547 23.3881C99.9547 22.3156 99.5498 21.5386 98.74 21.057C97.9301 20.5536 96.7482 20.3019 95.1941 20.3019H90.1381V26.4743H95.1613ZM107.801 12.4224C109.509 10.6276 111.785 9.73016 114.63 9.73016C117.476 9.73016 119.752 10.6276 121.459 12.4224C123.123 14.1953 123.987 16.5154 124.053 19.3826C123.987 22.228 123.123 24.5481 121.459 26.3429C119.752 28.1377 117.476 29.0351 114.63 29.0351C111.785 29.0351 109.509 28.1377 107.801 26.3429C106.094 24.5481 105.219 22.228 105.175 19.3826C105.219 16.5372 106.094 14.2171 107.801 12.4224ZM114.63 26.7369C116.819 26.7369 118.537 26.0365 119.785 24.6357C121.011 23.2786 121.624 21.5276 121.624 19.3826C121.624 17.2376 121.011 15.4866 119.785 14.1296C118.515 12.7069 116.797 12.0065 114.63 12.0284C112.442 12.0284 110.713 12.7288 109.443 14.1296C108.217 15.4866 107.615 17.2376 107.637 19.3826C107.637 21.5276 108.239 23.2786 109.443 24.6357C110.713 26.0365 112.442 26.7369 114.63 26.7369ZM140.272 26.4743C140.622 26.4743 140.907 26.5946 141.125 26.8354C141.344 27.0543 141.454 27.3279 141.454 27.6562C141.454 27.9626 141.344 28.2253 141.125 28.4441C140.907 28.663 140.622 28.7725 140.272 28.7725H128.321C127.883 28.7725 127.511 28.6192 127.205 28.3128C126.898 28.0064 126.745 27.6452 126.745 27.2294C126.745 26.8135 126.855 26.4743 127.074 26.2116L138.302 12.3239H127.96C127.654 12.3239 127.38 12.2144 127.139 11.9955C126.92 11.7767 126.811 11.5031 126.811 11.1748C126.811 10.8683 126.92 10.5947 127.139 10.354C127.38 10.1132 127.654 9.99282 127.96 9.99282H139.648C140.173 9.99282 140.578 10.157 140.863 10.4853C141.147 10.8136 141.29 11.1966 141.29 11.6344C141.29 12.0503 141.147 12.4224 140.863 12.7507L129.766 26.4743H140.272ZM146.74 12.4224C148.447 10.6276 150.723 9.73016 153.569 9.73016C156.414 9.73016 158.69 10.6276 160.398 12.4224C162.061 14.1953 162.926 16.5154 162.991 19.3826C162.926 22.228 162.061 24.5481 160.398 26.3429C158.69 28.1377 156.414 29.0351 153.569 29.0351C150.723 29.0351 148.447 28.1377 146.74 26.3429C145.032 24.5481 144.157 22.228 144.113 19.3826C144.157 16.5372 145.032 14.2171 146.74 12.4224ZM153.569 26.7369C155.757 26.7369 157.476 26.0365 158.723 24.6357C159.949 23.2786 160.562 21.5276 160.562 19.3826C160.562 17.2376 159.949 15.4866 158.723 14.1296C157.454 12.7069 155.736 12.0065 153.569 12.0284C151.38 12.0284 149.651 12.7288 148.381 14.1296C147.156 15.4866 146.554 17.2376 146.576 19.3826C146.576 21.5276 147.177 23.2786 148.381 24.6357C149.651 26.0365 151.38 26.7369 153.569 26.7369ZM181.672 27.689C181.672 28.0173 181.552 28.3019 181.311 28.5426C181.092 28.7834 180.797 28.9038 180.425 28.9038C180.075 28.9038 179.779 28.7943 179.538 28.5755C179.32 28.3566 179.21 28.0611 179.21 27.689V26.8682C179.21 25.4236 179.046 24.3621 178.718 23.6836C178.411 23.0051 177.973 22.4688 177.404 22.0748C176.857 21.659 176.069 21.451 175.04 21.451H169.492V27.689C169.492 28.0173 169.372 28.3019 169.131 28.5426C168.89 28.7834 168.595 28.9038 168.244 28.9038C167.916 28.9038 167.631 28.7834 167.391 28.5426C167.15 28.3019 167.03 28.0173 167.03 27.689V11.2404C167.03 10.9121 167.15 10.6276 167.391 10.3868C167.631 10.1241 167.916 9.99282 168.244 9.99282H174.515C176.967 9.99282 178.827 10.5181 180.097 11.5687C181.278 12.5537 181.858 13.8451 181.837 15.4429C181.837 16.4716 181.541 17.4456 180.95 18.3649C180.381 19.2623 179.495 19.9079 178.291 20.3019C179.582 20.6302 180.523 21.5714 181.114 23.1254C181.508 24.1323 181.694 25.2485 181.672 26.4743V27.689ZM174.351 19.12C175.861 19.12 177.076 18.8354 177.995 18.2664C178.915 17.6754 179.374 16.7999 179.374 15.6398C179.374 14.5673 179.013 13.7575 178.291 13.2103C177.437 12.5975 176.08 12.291 174.22 12.291H169.492V19.12H174.351Z"/>
</mask>
<path d="M101.268 14.8847C101.268 16.8327 100.392 18.2007 98.6415 18.9887C100.349 19.5577 101.476 20.5099 102.023 21.845C102.22 22.3484 102.319 22.9503 102.319 23.6507C102.319 24.3293 102.187 24.9968 101.925 25.6535C101.684 26.2882 101.29 26.8463 100.743 27.3279C99.5826 28.2909 97.7988 28.7725 95.3911 28.7725H88.8905C88.5622 28.7725 88.2776 28.6521 88.0369 28.4113C87.7961 28.1705 87.6757 27.886 87.6757 27.5577V11.2404C87.6757 10.9121 87.7961 10.6276 88.0369 10.3868C88.2776 10.1241 88.5622 9.99282 88.8905 9.99282H95.2598C97.2297 9.99282 98.7181 10.4525 99.7249 11.3717C100.754 12.2691 101.268 13.4401 101.268 14.8847ZM98.9369 15.0489C98.9369 14.2171 98.5977 13.5496 97.9192 13.0462C97.2625 12.5427 96.3104 12.291 95.0628 12.291H90.1381V18.1022H94.6032C96.9233 18.1022 98.3022 17.4894 98.74 16.2636C98.8713 15.8916 98.9369 15.4866 98.9369 15.0489ZM95.1613 26.4743C97.7003 26.4743 99.2215 25.8614 99.7249 24.6357C99.8781 24.2417 99.9547 23.8258 99.9547 23.3881C99.9547 22.3156 99.5498 21.5386 98.74 21.057C97.9301 20.5536 96.7482 20.3019 95.1941 20.3019H90.1381V26.4743H95.1613ZM107.801 12.4224C109.509 10.6276 111.785 9.73016 114.63 9.73016C117.476 9.73016 119.752 10.6276 121.459 12.4224C123.123 14.1953 123.987 16.5154 124.053 19.3826C123.987 22.228 123.123 24.5481 121.459 26.3429C119.752 28.1377 117.476 29.0351 114.63 29.0351C111.785 29.0351 109.509 28.1377 107.801 26.3429C106.094 24.5481 105.219 22.228 105.175 19.3826C105.219 16.5372 106.094 14.2171 107.801 12.4224ZM114.63 26.7369C116.819 26.7369 118.537 26.0365 119.785 24.6357C121.011 23.2786 121.624 21.5276 121.624 19.3826C121.624 17.2376 121.011 15.4866 119.785 14.1296C118.515 12.7069 116.797 12.0065 114.63 12.0284C112.442 12.0284 110.713 12.7288 109.443 14.1296C108.217 15.4866 107.615 17.2376 107.637 19.3826C107.637 21.5276 108.239 23.2786 109.443 24.6357C110.713 26.0365 112.442 26.7369 114.63 26.7369ZM140.272 26.4743C140.622 26.4743 140.907 26.5946 141.125 26.8354C141.344 27.0543 141.454 27.3279 141.454 27.6562C141.454 27.9626 141.344 28.2253 141.125 28.4441C140.907 28.663 140.622 28.7725 140.272 28.7725H128.321C127.883 28.7725 127.511 28.6192 127.205 28.3128C126.898 28.0064 126.745 27.6452 126.745 27.2294C126.745 26.8135 126.855 26.4743 127.074 26.2116L138.302 12.3239H127.96C127.654 12.3239 127.38 12.2144 127.139 11.9955C126.92 11.7767 126.811 11.5031 126.811 11.1748C126.811 10.8683 126.92 10.5947 127.139 10.354C127.38 10.1132 127.654 9.99282 127.96 9.99282H139.648C140.173 9.99282 140.578 10.157 140.863 10.4853C141.147 10.8136 141.29 11.1966 141.29 11.6344C141.29 12.0503 141.147 12.4224 140.863 12.7507L129.766 26.4743H140.272ZM146.74 12.4224C148.447 10.6276 150.723 9.73016 153.569 9.73016C156.414 9.73016 158.69 10.6276 160.398 12.4224C162.061 14.1953 162.926 16.5154 162.991 19.3826C162.926 22.228 162.061 24.5481 160.398 26.3429C158.69 28.1377 156.414 29.0351 153.569 29.0351C150.723 29.0351 148.447 28.1377 146.74 26.3429C145.032 24.5481 144.157 22.228 144.113 19.3826C144.157 16.5372 145.032 14.2171 146.74 12.4224ZM153.569 26.7369C155.757 26.7369 157.476 26.0365 158.723 24.6357C159.949 23.2786 160.562 21.5276 160.562 19.3826C160.562 17.2376 159.949 15.4866 158.723 14.1296C157.454 12.7069 155.736 12.0065 153.569 12.0284C151.38 12.0284 149.651 12.7288 148.381 14.1296C147.156 15.4866 146.554 17.2376 146.576 19.3826C146.576 21.5276 147.177 23.2786 148.381 24.6357C149.651 26.0365 151.38 26.7369 153.569 26.7369ZM181.672 27.689C181.672 28.0173 181.552 28.3019 181.311 28.5426C181.092 28.7834 180.797 28.9038 180.425 28.9038C180.075 28.9038 179.779 28.7943 179.538 28.5755C179.32 28.3566 179.21 28.0611 179.21 27.689V26.8682C179.21 25.4236 179.046 24.3621 178.718 23.6836C178.411 23.0051 177.973 22.4688 177.404 22.0748C176.857 21.659 176.069 21.451 175.04 21.451H169.492V27.689C169.492 28.0173 169.372 28.3019 169.131 28.5426C168.89 28.7834 168.595 28.9038 168.244 28.9038C167.916 28.9038 167.631 28.7834 167.391 28.5426C167.15 28.3019 167.03 28.0173 167.03 27.689V11.2404C167.03 10.9121 167.15 10.6276 167.391 10.3868C167.631 10.1241 167.916 9.99282 168.244 9.99282H174.515C176.967 9.99282 178.827 10.5181 180.097 11.5687C181.278 12.5537 181.858 13.8451 181.837 15.4429C181.837 16.4716 181.541 17.4456 180.95 18.3649C180.381 19.2623 179.495 19.9079 178.291 20.3019C179.582 20.6302 180.523 21.5714 181.114 23.1254C181.508 24.1323 181.694 25.2485 181.672 26.4743V27.689ZM174.351 19.12C175.861 19.12 177.076 18.8354 177.995 18.2664C178.915 17.6754 179.374 16.7999 179.374 15.6398C179.374 14.5673 179.013 13.7575 178.291 13.2103C177.437 12.5975 176.08 12.291 174.22 12.291H169.492V19.12H174.351Z" fill="#0466C8"/>
<path d="M98.6415 18.9887L98.3236 18.2824L96.5151 19.0962L98.3966 19.7234L98.6415 18.9887ZM102.023 21.845L102.744 21.5628L102.74 21.5513L102.023 21.845ZM101.925 25.6535L101.205 25.3658L101.2 25.3788L101.925 25.6535ZM100.743 27.3279L101.237 27.9237L101.246 27.9166L101.254 27.9093L100.743 27.3279ZM88.0369 10.3868L88.5845 10.9344L88.5964 10.9225L88.6078 10.9101L88.0369 10.3868ZM99.7249 11.3717L99.2027 11.9437L99.2092 11.9496L99.2158 11.9554L99.7249 11.3717ZM97.9192 13.0462L97.4479 13.6608L97.4577 13.6681L97.9192 13.0462ZM90.1381 12.291V11.5166H89.3636V12.291H90.1381ZM90.1381 18.1022H89.3636V18.8767H90.1381V18.1022ZM98.74 16.2636L99.4693 16.5241L99.4703 16.5214L98.74 16.2636ZM99.7249 24.6357L100.441 24.9299L100.444 24.9232L100.447 24.9164L99.7249 24.6357ZM98.74 21.057L98.3311 21.7148L98.3376 21.7188L98.3441 21.7227L98.74 21.057ZM90.1381 20.3019V19.5275H89.3636V20.3019H90.1381ZM90.1381 26.4743H89.3636V27.2487H90.1381V26.4743ZM100.494 14.8847C100.494 15.7406 100.302 16.4178 99.959 16.9542C99.6162 17.4899 99.0874 17.9387 98.3236 18.2824L98.9593 19.6949C99.9465 19.2506 100.731 18.6215 101.264 17.7892C101.796 16.9576 102.042 15.9769 102.042 14.8847H100.494ZM98.3966 19.7234C99.9471 20.2402 100.865 21.0623 101.306 22.1387L102.74 21.5513C102.086 19.9574 100.75 18.8752 98.8864 18.2539L98.3966 19.7234ZM101.302 22.1272C101.455 22.5185 101.544 23.0197 101.544 23.6507H103.093C103.093 22.8809 102.985 22.1784 102.744 21.5628L101.302 22.1272ZM101.544 23.6507C101.544 24.2266 101.433 24.7968 101.206 25.3658L102.644 25.9411C102.941 25.1969 103.093 24.4319 103.093 23.6507H101.544ZM101.2 25.3788C101.008 25.8869 100.691 26.342 100.231 26.7465L101.254 27.9093C101.889 27.3507 102.36 26.6895 102.649 25.9281L101.2 25.3788ZM100.248 26.732C99.2888 27.5283 97.7193 27.998 95.3911 27.998V29.5469C97.8783 29.5469 99.8765 29.0536 101.237 27.9237L100.248 26.732ZM95.3911 27.998H88.8905V29.5469H95.3911V27.998ZM88.8905 27.998C88.7759 27.998 88.686 27.9652 88.5845 27.8637L87.4892 28.9589C87.8692 29.3389 88.3484 29.5469 88.8905 29.5469V27.998ZM88.5845 27.8637C88.483 27.7621 88.4502 27.6723 88.4502 27.5577H86.9013C86.9013 28.0998 87.1093 28.579 87.4892 28.9589L88.5845 27.8637ZM88.4502 27.5577V11.2404H86.9013V27.5577H88.4502ZM88.4502 11.2404C88.4502 11.1259 88.483 11.036 88.5845 10.9344L87.4892 9.83917C87.1093 10.2192 86.9013 10.6983 86.9013 11.2404H88.4502ZM88.6078 10.9101C88.7158 10.7922 88.7991 10.7673 88.8905 10.7673V9.21836C88.3252 9.21836 87.8394 9.45606 87.466 9.86347L88.6078 10.9101ZM88.8905 10.7673H95.2598V9.21836H88.8905V10.7673ZM95.2598 10.7673C97.1215 10.7673 98.3909 11.2025 99.2027 11.9437L100.247 10.7998C99.0452 9.70244 97.3379 9.21836 95.2598 9.21836V10.7673ZM99.2158 11.9554C100.065 12.6962 100.494 13.6491 100.494 14.8847H102.042C102.042 13.2312 101.442 11.8421 100.234 10.7881L99.2158 11.9554ZM99.7114 15.0489C99.7114 13.9674 99.2524 13.071 98.3806 12.4242L97.4577 13.6681C97.943 14.0282 98.1625 14.4669 98.1625 15.0489H99.7114ZM98.3904 12.4315C97.5452 11.7836 96.3985 11.5166 95.0628 11.5166V13.0655C96.2223 13.0655 96.9798 13.3019 97.448 13.6608L98.3904 12.4315ZM95.0628 11.5166H90.1381V13.0655H95.0628V11.5166ZM89.3636 12.291V18.1022H90.9125V12.291H89.3636ZM90.1381 18.8767H94.6032V17.3277H90.1381V18.8767ZM94.6032 18.8767C96.9708 18.8767 98.8504 18.2571 99.4693 16.5241L98.0106 16.0032C97.754 16.7216 96.8758 17.3277 94.6032 17.3277V18.8767ZM99.4703 16.5214C99.6338 16.058 99.7114 15.5649 99.7114 15.0489H98.1625C98.1625 15.4084 98.1087 15.7251 98.0096 16.0059L99.4703 16.5214ZM95.1613 27.2487C96.4814 27.2487 97.607 27.0911 98.4958 26.733C99.4012 26.3682 100.092 25.7799 100.441 24.9299L99.0085 24.3415C98.8542 24.7172 98.5329 25.0481 97.917 25.2963C97.2847 25.551 96.3802 25.6998 95.1613 25.6998V27.2487ZM100.447 24.9164C100.636 24.4297 100.729 23.9184 100.729 23.3881H99.1803C99.1803 23.7333 99.1203 24.0537 99.0031 24.355L100.447 24.9164ZM100.729 23.3881C100.729 22.0875 100.217 21.0341 99.1358 20.3914L98.3441 21.7227C98.8829 22.0431 99.1803 22.5436 99.1803 23.3881H100.729ZM99.1488 20.3993C98.1615 19.7856 96.8107 19.5275 95.1941 19.5275V21.0764C96.6857 21.0764 97.6987 21.3217 98.3311 21.7148L99.1488 20.3993ZM95.1941 19.5275H90.1381V21.0764H95.1941V19.5275ZM89.3636 20.3019V26.4743H90.9125V20.3019H89.3636ZM90.1381 27.2487H95.1613V25.6998H90.1381V27.2487ZM121.459 12.4224L122.024 11.8924L122.021 11.8886L121.459 12.4224ZM124.053 19.3826L124.827 19.4005L124.828 19.3827L124.827 19.3649L124.053 19.3826ZM121.459 26.3429L122.021 26.8767L122.027 26.8694L121.459 26.3429ZM105.175 19.3826L104.401 19.3707L104.4 19.3826L104.401 19.3946L105.175 19.3826ZM119.785 24.6357L119.21 24.1166L119.207 24.1206L119.785 24.6357ZM119.785 14.1296L119.207 14.6452L119.21 14.6487L119.785 14.1296ZM114.63 12.0284V12.8029L114.638 12.8028L114.63 12.0284ZM109.443 14.1296L108.869 13.6095L108.868 13.6105L109.443 14.1296ZM107.637 19.3826H108.412L108.412 19.3747L107.637 19.3826ZM109.443 24.6357L108.864 25.1497L108.869 25.1558L109.443 24.6357ZM108.363 12.9561C109.901 11.3383 111.963 10.5046 114.63 10.5046V8.9557C111.607 8.9557 109.116 9.91678 107.24 11.8886L108.363 12.9561ZM114.63 10.5046C117.298 10.5046 119.359 11.3383 120.898 12.9561L122.021 11.8886C120.145 9.91678 117.653 8.9557 114.63 8.9557V10.5046ZM120.895 12.9523C122.405 14.5617 123.217 16.6875 123.279 19.4004L124.827 19.3649C124.758 16.3432 123.841 13.8288 122.024 11.8924L120.895 12.9523ZM123.279 19.3648C123.217 22.0539 122.406 24.1826 120.891 25.8165L122.027 26.8694C123.84 24.9137 124.758 22.4022 124.827 19.4005L123.279 19.3648ZM120.898 25.8092C119.359 27.4269 117.298 28.2607 114.63 28.2607V29.8096C117.653 29.8096 120.145 28.8485 122.021 26.8767L120.898 25.8092ZM114.63 28.2607C111.963 28.2607 109.901 27.4269 108.363 25.8092L107.24 26.8767C109.116 28.8485 111.607 29.8096 114.63 29.8096V28.2607ZM108.363 25.8092C106.809 24.1763 105.991 22.0526 105.949 19.3707L104.401 19.3946C104.447 22.4035 105.379 24.9199 107.24 26.8767L108.363 25.8092ZM105.949 19.3946C105.991 16.7127 106.809 14.5889 108.363 12.9561L107.24 11.8886C105.379 13.8453 104.447 16.3618 104.401 19.3707L105.949 19.3946ZM114.63 27.5114C117 27.5114 118.944 26.7446 120.363 25.1508L119.207 24.1206C118.131 25.3284 116.639 25.9624 114.63 25.9624V27.5114ZM120.36 25.1548C121.736 23.6313 122.398 21.6842 122.398 19.3826H120.849C120.849 21.3711 120.286 22.926 119.21 24.1166L120.36 25.1548ZM122.398 19.3826C122.398 17.0811 121.736 15.134 120.36 13.6105L119.21 14.6487C120.286 15.8393 120.849 17.3942 120.849 19.3826H122.398ZM120.363 13.614C118.923 12.0008 116.979 11.2302 114.623 11.254L114.638 12.8028C116.616 12.7828 118.108 13.413 119.207 14.6452L120.363 13.614ZM114.63 11.2539C112.261 11.2539 110.309 12.0206 108.869 13.6095L110.017 14.6497C111.116 13.437 112.622 12.8028 114.63 12.8028V11.2539ZM108.868 13.6105C107.49 15.1364 106.839 17.0869 106.863 19.3905L108.412 19.3747C108.391 17.3884 108.945 15.8368 110.018 14.6487L108.868 13.6105ZM106.863 19.3826C106.863 21.6805 107.512 23.6258 108.864 25.1496L110.022 24.1217C108.967 22.9315 108.412 21.3747 108.412 19.3826H106.863ZM108.869 25.1558C110.309 26.7447 112.261 27.5114 114.63 27.5114V25.9624C112.622 25.9624 111.116 25.3283 110.017 24.1156L108.869 25.1558ZM141.125 26.8354L140.552 27.3564L140.565 27.37L140.578 27.383L141.125 26.8354ZM127.074 26.2116L127.669 26.7075L127.676 26.6985L127.074 26.2116ZM138.302 12.3239L138.904 12.8108L139.924 11.5494H138.302V12.3239ZM127.139 11.9955L126.592 12.5432L126.605 12.5562L126.618 12.5686L127.139 11.9955ZM127.139 10.354L126.592 9.80634L126.579 9.81937L126.566 9.83301L127.139 10.354ZM140.863 12.7507L140.278 12.2434L140.269 12.2534L140.261 12.2637L140.863 12.7507ZM129.766 26.4743L129.164 25.9873L128.144 27.2487H129.766V26.4743ZM140.272 27.2487C140.423 27.2487 140.492 27.2904 140.552 27.3564L141.699 26.3144C141.321 25.8989 140.822 25.6998 140.272 25.6998V27.2487ZM140.578 27.383C140.642 27.4472 140.679 27.5194 140.679 27.6562H142.228C142.228 27.1363 142.047 26.6614 141.673 26.2878L140.578 27.383ZM140.679 27.6562C140.679 27.7549 140.653 27.8212 140.578 27.8965L141.673 28.9918C142.036 28.6293 142.228 28.1703 142.228 27.6562H140.679ZM140.578 27.8965C140.524 27.9506 140.446 27.998 140.272 27.998V29.5469C140.798 29.5469 141.289 29.3754 141.673 28.9918L140.578 27.8965ZM140.272 27.998H128.321V29.5469H140.272V27.998ZM128.321 27.998C128.086 27.998 127.912 27.9247 127.753 27.7652L126.657 28.8604C127.111 29.3138 127.68 29.5469 128.321 29.5469V27.998ZM127.753 27.7652C127.585 27.5972 127.52 27.4304 127.52 27.2294H125.971C125.971 27.8601 126.212 28.4156 126.657 28.8604L127.753 27.7652ZM127.52 27.2294C127.52 26.954 127.589 26.8025 127.669 26.7074L126.479 25.7158C126.12 26.146 125.971 26.673 125.971 27.2294H127.52ZM127.676 26.6985L138.904 12.8108L137.7 11.8369L126.471 25.7247L127.676 26.6985ZM138.302 11.5494H127.96V13.0983H138.302V11.5494ZM127.96 11.5494C127.859 11.5494 127.768 11.5205 127.66 11.4225L126.618 12.5686C126.992 12.9083 127.448 13.0983 127.96 13.0983V11.5494ZM127.687 11.4479C127.623 11.3838 127.585 11.3115 127.585 11.1748H126.036C126.036 11.6946 126.218 12.1696 126.592 12.5432L127.687 11.4479ZM127.585 11.1748C127.585 11.0736 127.614 10.9828 127.712 10.8749L126.566 9.83301C126.226 10.2067 126.036 10.663 126.036 11.1748H127.585ZM127.687 10.9016C127.8 10.7884 127.883 10.7673 127.96 10.7673V9.21836C127.424 9.21836 126.96 9.43802 126.592 9.80634L127.687 10.9016ZM127.96 10.7673H139.648V9.21836H127.96V10.7673ZM139.648 10.7673C140 10.7673 140.171 10.8692 140.278 10.9925L141.448 9.97807C140.986 9.44473 140.347 9.21836 139.648 9.21836V10.7673ZM140.278 10.9925C140.439 11.1788 140.515 11.3814 140.515 11.6344H142.064C142.064 11.0119 141.856 10.4484 141.448 9.97807L140.278 10.9925ZM140.515 11.6344C140.515 11.855 140.446 12.0491 140.278 12.2434L141.448 13.2579C141.849 12.7956 142.064 12.2455 142.064 11.6344H140.515ZM140.261 12.2637L129.164 25.9873L130.368 26.9612L141.465 13.2376L140.261 12.2637ZM129.766 27.2487H140.272V25.6998H129.766V27.2487ZM160.398 12.4224L160.962 11.8924L160.959 11.8886L160.398 12.4224ZM162.991 19.3826L163.766 19.4005L163.766 19.3827L163.766 19.3649L162.991 19.3826ZM160.398 26.3429L160.959 26.8767L160.966 26.8694L160.398 26.3429ZM144.113 19.3826L143.339 19.3707L143.339 19.3826L143.339 19.3946L144.113 19.3826ZM158.723 24.6357L158.148 24.1166L158.145 24.1206L158.723 24.6357ZM158.723 14.1296L158.145 14.6452L158.148 14.6487L158.723 14.1296ZM153.569 12.0284V12.8029L153.576 12.8028L153.569 12.0284ZM148.381 14.1296L147.807 13.6095L147.807 13.6105L148.381 14.1296ZM146.576 19.3826H147.35L147.35 19.3747L146.576 19.3826ZM148.381 24.6357L147.802 25.1497L147.807 25.1558L148.381 24.6357ZM147.301 12.9561C148.84 11.3383 150.901 10.5046 153.569 10.5046V8.9557C150.546 8.9557 148.054 9.91678 146.179 11.8886L147.301 12.9561ZM153.569 10.5046C156.236 10.5046 158.298 11.3383 159.836 12.9561L160.959 11.8886C159.083 9.91678 156.592 8.9557 153.569 8.9557V10.5046ZM159.833 12.9523C161.343 14.5617 162.155 16.6875 162.217 19.4004L163.766 19.3649C163.696 16.3432 162.779 13.8288 160.962 11.8924L159.833 12.9523ZM162.217 19.3648C162.155 22.0539 161.344 24.1826 159.83 25.8165L160.966 26.8694C162.778 24.9137 163.696 22.4022 163.766 19.4005L162.217 19.3648ZM159.836 25.8092C158.298 27.4269 156.236 28.2607 153.569 28.2607V29.8096C156.592 29.8096 159.083 28.8485 160.959 26.8767L159.836 25.8092ZM153.569 28.2607C150.901 28.2607 148.84 27.4269 147.301 25.8092L146.179 26.8767C148.054 28.8485 150.546 29.8096 153.569 29.8096V28.2607ZM147.301 25.8092C145.748 24.1763 144.929 22.0526 144.888 19.3707L143.339 19.3946C143.385 22.4035 144.317 24.9199 146.179 26.8767L147.301 25.8092ZM144.888 19.3946C144.929 16.7127 145.748 14.5889 147.301 12.9561L146.179 11.8886C144.317 13.8453 143.385 16.3618 143.339 19.3707L144.888 19.3946ZM153.569 27.5114C155.938 27.5114 157.882 26.7446 159.302 25.1508L158.145 24.1206C157.069 25.3284 155.577 25.9624 153.569 25.9624V27.5114ZM159.298 25.1548C160.674 23.6313 161.336 21.6842 161.336 19.3826H159.787C159.787 21.3711 159.224 22.926 158.148 24.1166L159.298 25.1548ZM161.336 19.3826C161.336 17.0811 160.674 15.134 159.298 13.6105L158.148 14.6487C159.224 15.8393 159.787 17.3942 159.787 19.3826H161.336ZM159.301 13.614C157.862 12.0008 155.917 11.2302 153.561 11.254L153.576 12.8028C155.554 12.7828 157.046 13.413 158.145 14.6452L159.301 13.614ZM153.569 11.2539C151.199 11.2539 149.247 12.0206 147.807 13.6095L148.955 14.6497C150.054 13.437 151.561 12.8028 153.569 12.8028V11.2539ZM147.807 13.6105C146.428 15.1364 145.778 17.0869 145.801 19.3905L147.35 19.3747C147.33 17.3884 147.883 15.8368 148.956 14.6487L147.807 13.6105ZM145.801 19.3826C145.801 21.6805 146.45 23.6258 147.802 25.1496L148.961 24.1217C147.905 22.9315 147.35 21.3747 147.35 19.3826H145.801ZM147.807 25.1558C149.247 26.7447 151.199 27.5114 153.569 27.5114V25.9624C151.561 25.9624 150.054 25.3283 148.955 24.1156L147.807 25.1558ZM181.311 28.5426L180.764 27.995L180.751 28.008L180.738 28.0217L181.311 28.5426ZM179.538 28.5755L178.991 29.1231L179.004 29.1361L179.017 29.1485L179.538 28.5755ZM178.718 23.6836L178.012 24.0023L178.016 24.0117L178.02 24.0209L178.718 23.6836ZM177.404 22.0748L176.936 22.6914L176.949 22.7018L176.964 22.7116L177.404 22.0748ZM169.492 21.451V20.6766H168.717V21.451H169.492ZM167.391 10.3868L167.938 10.9344L167.95 10.9225L167.962 10.9101L167.391 10.3868ZM180.097 11.5687L180.592 10.9738L180.59 10.9721L180.097 11.5687ZM181.837 15.4429L181.062 15.4322V15.4429H181.837ZM180.95 18.3649L180.299 17.9461L180.296 17.9501L180.95 18.3649ZM178.291 20.3019L178.05 19.5659L175.515 20.3954L178.1 21.0525L178.291 20.3019ZM181.114 23.1254L180.39 23.4007L180.393 23.4076L181.114 23.1254ZM181.672 26.4743L180.898 26.4604V26.4743H181.672ZM177.995 18.2664L178.403 18.925L178.414 18.9178L177.995 18.2664ZM178.291 13.2103L178.758 12.593L178.751 12.587L178.742 12.5812L178.291 13.2103ZM169.492 12.291V11.5166H168.717V12.291H169.492ZM169.492 19.12H168.717V19.8944H169.492V19.12ZM180.898 27.689C180.898 27.8036 180.865 27.8935 180.764 27.995L181.859 29.0903C182.239 28.7103 182.447 28.2311 182.447 27.689H180.898ZM180.738 28.0217C180.688 28.0771 180.613 28.1293 180.425 28.1293V29.6782C180.981 29.6782 181.497 29.4897 181.884 29.0636L180.738 28.0217ZM180.425 28.1293C180.251 28.1293 180.146 28.0813 180.059 28.0024L179.017 29.1485C179.412 29.5074 179.898 29.6782 180.425 29.6782V28.1293ZM180.086 28.0278C180.041 27.9829 179.985 27.9001 179.985 27.689H178.436C178.436 28.2221 178.598 28.7303 178.991 29.1231L180.086 28.0278ZM179.985 27.689V26.8682H178.436V27.689H179.985ZM179.985 26.8682C179.985 25.3949 179.822 24.1877 179.415 23.3462L178.02 24.0209C178.27 24.5365 178.436 25.4524 178.436 26.8682H179.985ZM179.423 23.3648C179.064 22.5683 178.539 21.9181 177.845 21.4381L176.964 22.7116C177.408 23.0195 177.759 23.4418 178.012 24.0023L179.423 23.3648ZM177.873 21.4582C177.139 20.9002 176.158 20.6766 175.04 20.6766V22.2255C175.98 22.2255 176.576 22.4177 176.936 22.6914L177.873 21.4582ZM175.04 20.6766H169.492V22.2255H175.04V20.6766ZM168.717 21.451V27.689H170.266V21.451H168.717ZM168.717 27.689C168.717 27.8036 168.685 27.8935 168.583 27.995L169.678 29.0903C170.058 28.7103 170.266 28.2311 170.266 27.689H168.717ZM168.583 27.995C168.492 28.086 168.396 28.1293 168.244 28.1293V29.6782C168.793 29.6782 169.288 29.4808 169.678 29.0903L168.583 27.995ZM168.244 28.1293C168.13 28.1293 168.04 28.0966 167.938 27.995L166.843 29.0903C167.223 29.4703 167.702 29.6782 168.244 29.6782V28.1293ZM167.938 27.995C167.837 27.8935 167.804 27.8036 167.804 27.689H166.255C166.255 28.2311 166.463 28.7103 166.843 29.0903L167.938 27.995ZM167.804 27.689V11.2404H166.255V27.689H167.804ZM167.804 11.2404C167.804 11.1259 167.837 11.036 167.938 10.9344L166.843 9.83917C166.463 10.2192 166.255 10.6983 166.255 11.2404H167.804ZM167.962 10.9101C168.07 10.7922 168.153 10.7673 168.244 10.7673V9.21836C167.679 9.21836 167.193 9.45606 166.82 9.86347L167.962 10.9101ZM168.244 10.7673H174.515V9.21836H168.244V10.7673ZM174.515 10.7673C176.871 10.7673 178.526 11.2741 179.603 12.1654L180.59 10.9721C179.128 9.76209 177.062 9.21836 174.515 9.21836V10.7673ZM179.601 12.1637C180.595 12.9926 181.081 14.0576 181.062 15.4322L182.611 15.4535C182.636 13.6326 181.962 12.1148 180.592 10.9738L179.601 12.1637ZM181.062 15.4429C181.062 16.3137 180.815 17.1435 180.299 17.9461L181.602 18.7837C182.268 17.7476 182.611 16.6295 182.611 15.4429H181.062ZM180.296 17.9501C179.841 18.6679 179.117 19.2166 178.05 19.5659L178.532 21.038C179.872 20.5993 180.921 19.8567 181.604 18.7796L180.296 17.9501ZM178.1 21.0525C179.086 21.3032 179.864 22.0169 180.39 23.4007L181.838 22.8502C181.183 21.126 180.078 19.9573 178.482 19.5513L178.1 21.0525ZM180.393 23.4076C180.746 24.3084 180.918 25.3224 180.898 26.4604L182.447 26.4881C182.47 25.1746 182.271 23.9561 181.836 22.8432L180.393 23.4076ZM180.898 26.4743V27.689H182.447V26.4743H180.898ZM174.351 19.8944C175.951 19.8944 177.322 19.5941 178.403 18.9249L177.588 17.6079C176.83 18.0768 175.772 18.3455 174.351 18.3455V19.8944ZM178.414 18.9178C179.571 18.1742 180.149 17.044 180.149 15.6398H178.6C178.6 16.5558 178.258 17.1766 177.577 17.6149L178.414 18.9178ZM180.149 15.6398C180.149 14.3751 179.711 13.3144 178.758 12.593L177.823 13.8276C178.315 14.2006 178.6 14.7596 178.6 15.6398H180.149ZM178.742 12.5812C177.69 11.8253 176.132 11.5166 174.22 11.5166V13.0655C176.028 13.0655 177.185 13.3696 177.839 13.8394L178.742 12.5812ZM174.22 11.5166H169.492V13.0655H174.22V11.5166ZM168.717 12.291V19.12H170.266V12.291H168.717ZM169.492 19.8944H174.351V18.3455H169.492V19.8944Z" fill="#0466C8" mask="url(#path-4-outside-1_862_3440)"/>
</svg>
